<svg xmlns="http://www.w3.org/2000/svg" width="800" height="800" fill="none" viewBox="0 0 960 960"><g clip-path="url(#a)"><path fill="#000" d="M468.006 458.921c29.751-119.91 63.029-247.008 155.268-334.79 103.433-99.157 254.908-18.24 268.059 114.178 10.219 72.26-9.29 146.525-65.618 196.474-3.036 2.966-8.355 4.068-12.842 4.987-38.348 11.071-64.674-33.78-41.881-63.869 47.359-46.102 55.279-125.314 17.899-180.534-23.03-36.316-64.304-42.654-98.984-17.921-72.034 55.627-100.519 151.467-125.535 235.473-30.455 117.057-43.36 237.915-55.632 357.989-3.939 29.591 8.613 71.282-11.113 95.091-18.756 24.011-64.235 15.917-69.177-14.936-2.871-16.12-1.956-32.915-2.684-49.415-1.85-47.764-5.192-95.472-8.662-143.139-10.522-128.61-41.707-254.511-82.691-376.543-19.671-61.172-82.168-142.328-149.628-87.088-63.518 41.525-36.572 136.562 10.608 185.104 20.926 20.22 57.983 33.291 43.277 69.545-52.573 82.807-165.08-88.517-167.362-142.805C33.682 167.109 207.072 31.417 325.827 129.503c98.675 80.099 107.823 215.161 142.179 329.418Z"/></g><defs><clipPath id="a"><path fill="#fff" d="M66 80h828v800.002H66z"/></clipPath></defs></svg>