<svg xmlns="http://www.w3.org/2000/svg" width="800" height="800" fill="none" viewBox="0 0 960 960"><g fill="#000" clip-path="url(#a)"><path d="M578.572 684.766c-10.104-17.576-22.61-33.674-29.231-51.909-33.956-88.75 29.321-194.663 119.399-216.995 90.863-23.542 197.984 31.748 209.765 129.503 21.332 174.436-190.663 215.161-323.26 222.747-131.975 7.172-264.608-.433-391.047-41.694-35.052-10.299-101.596-29.768-79.964-78.451 18.866-36.179 58.662-12.816 87.272-3.365 131.545 39.885 270.323 56.447 407.066 40.164Zm220.349-117.864c-2.395-79.058-121.981-97.085-157.435-27.213-28.789 41.809-8.957 94.663 42.371 101.341 10.229 2.085 22.126-.155 30.928 4.247 15.605 7.805 26.456-.549 38.437-6.607 26.002-15.737 44.75-38.863 45.699-71.768Z"/><path d="M355.757 271.077c146.718 139.595-44.595 371.767-208.664 259.545-85.21-54.313-85.98-175.84-17.695-244.87 102.639-100.188 263.591-98.516 397.99-95.184 65.887 2.734 316.614 31.013 335.864 98.935 3.858 17.388-11.601 42.72-30.754 39.744-8.128-1.263-17.322-1.281-24.006-5.263-30.678-18.281-64.789-26.616-98.565-35.947-114.389-31.072-237.37-30.959-354.17-16.96Zm-191.27 133.376c-1.446 38.999 32.055 66.046 66.719 72.01 51.972 5.728 101.057-47.347 93.833-98.702-8.325-50.045-59.858-60.489-104.366-62.919-36.214 14.563-54.454 51.672-56.186 89.611Z"/></g><defs><clipPath id="a"><path fill="#fff" d="M80 189h800v582H80z"/></clipPath></defs></svg>