<svg xmlns="http://www.w3.org/2000/svg" width="800" height="800" fill="none" viewBox="-20 0 190 190"><path fill="#000" fill-rule="evenodd" d="M101.35 176.72c-13.36 0-20.69-7-20.69-18.78 0-15.69 15.41-53.2 15.41-65.86 0-9.49-4-16.71-13.71-16.71s-15.46 6.7-15.46 14c0 10.46 9.94 26.52 9.94 34.58 0 16.71-11.37 25.72-25.81 25.72-17.09 0-26.26-13.3-26.26-25.27 0-12.66 8.59-27.15 30.13-23.6-2.27-4.18-3.9-8.19-3.9-16.71C51 71 62.2 59.91 82.24 59.91s30.66 14.24 30.66 31.21c0 14.34-15.52 52.59-15.52 63.41 0 3.35 2.76 5.55 7.31 5.55 5 0 11.4-2.53 14-4 1.11 2.82 6.21 9.5 6.21 9.5-4.61 4.77-16.31 11.14-23.55 11.14ZM58.59 116c-6.11-1.42-16.68-1.28-16.68 8.53 0 4.7 4.52 9.52 9.2 9.52 12.37-.05 9.5-15.45 7.48-18.05Z" clip-rule="evenodd"/></svg>