<svg xmlns="http://www.w3.org/2000/svg" width="800" height="800" fill="none" viewBox="0 0 960 960"><g clip-path="url(#a)"><path fill="#000" d="M325.004 528.341c-41.17-.046-81.452.305-122.513-.114-23.263-.244-40.297-22.679-36.594-45.643 4.007-28.646 32.345-37.174 58.311-36.383 32.962-.242 65.929-.103 100.484-.103-7.616-102.063-47.067-203.874-116.902-279.303-12.518-12.783-18.255-27.328-14.18-45.212 3.255-14.284 12.3-23.884 25.584-28.324 15.606-5.216 31.188-2.996 42.88 9.208 24.02 25.069 45.533 52.181 63.404 82.13 49.086 78.255 68.214 165.669 82.646 256.263l122.007-3.21c-.795-142.358 91.257-257.398 193.246-347.245 35.579-31.126 93.752 13.539 61.075 55.625-10.503 12.34-22.308 23.734-34.509 34.437-74.282 66.741-132.036 154.591-136.901 256.673 38.388.029 76.265-.134 114.59.131 27.769.133 54.189-.204 64.776 31.495 9.989 28.835-15.727 55.457-44.276 54.164-42.491-.616-83.929-1.547-126.562-1.775 21.396 88.933 64.127 169.62 109.781 248.052 10.539 17.927 26.386 32.644 38.438 49.792 29.101 40.234-26.686 81.637-59.656 46.113-89.584-91.441-142.431-213.815-171.421-337.11-1.209-4.936-2.706-7.034-7.997-6.911-34.13.79-68.267 1.257-102.399 2-7.855.706-20.967-1.161-23.226 8.655-5.979 117.836-39.208 242.56-125 327.815-12.794 12.095-26.612 21.286-45.52 20.378-26.814-1.288-44.836-27.888-33.773-52.412 3.323-7.365 10.199-14.028 17.018-18.738 17.145-11.844 28.204-28.637 39.082-45.467 47.413-69.549 60.538-152.819 68.107-234.981Z"/></g><defs><clipPath id="a"><path fill="#fff" d="M165 80h630v800.001H165z"/></clipPath></defs></svg>