<svg xmlns="http://www.w3.org/2000/svg" width="800" height="800" fill="none" viewBox="0 0 960 960"><g clip-path="url(#a)"><path fill="#000" d="M365.093 430.144c-72.758-55.255-83.101-141.3-133.324-210.842-25.51-32.428-66.049-56.655-108.116-44.378-51.475 9.357-59.674-55.624-12.525-70.371 68.138-23.956 140.176 11.857 181.877 65.834 70.123 87.196 74.666 233.864 220.984 225.435C664.994 366.186 635.365 114.9 835.508 86.127c47.036-8.2 64.225 65.047 14.521 77.958-32.788 6.964-60.985 21.942-82.06 47.909-55.662 70.929-79.456 166.328-151.734 223.865 166.879 109.145 91.317 407.606-102.911 434.456-283.817 42.199-360.25-288.185-148.231-440.171Zm266.834 185.492c-8.433-97.103-46.86-111.562-130.034-140.732-10.917-.538-22.05-1.92-33.017-1.847-94.802 2.648-153.931 107.221-148.114 195.257 2.995 56.762 44.036 103.734 97.174 120.808 120.384 37.026 211.169-55.135 213.991-173.486Z"/></g><defs><clipPath id="a"><path fill="#fff" d="M80 85h800.001v790H80z"/></clipPath></defs></svg>