<svg xmlns="http://www.w3.org/2000/svg" width="800" height="800" fill="none" viewBox="-20 0 190 190"><path fill="#000" fill-rule="evenodd" d="m122.2 168.53-3.25 10c-9.07-.34-16.29-2.93-20-10.86a106.012 106.012 0 0 1-15.69 4.24l-2.59-11.79a90.208 90.208 0 0 0 15.52-5.17c0-.95-.07-1.94-.07-3 0-11.28.32-39.76.32-50.47 0-16.25-1.92-22.23-8.94-22.23-5.68 0-7.23 3.09-8.18 9.82.13 1.9.19 3.91.19 6.06v52.53l-16.76-.18v-46c0-16.25-1.07-22.23-8.93-22.23-6 0-7.4 3.46-8.35 11l.38 56.88-16.45.87-.09-71.11-1.12-11.17 14.3-2L44 69.83c3.2-3.57 8.08-6.11 15.71-6.11 7 0 12.42 2.77 15.78 9.21 3.08-5.11 8.38-9.21 17.83-9.21 12.38 0 19.19 7.08 19.76 28.43a41.76 41.76 0 0 1 7.86-10l5-.75c8 6.46 16 19.69 16 34.79 0 17-9.61 33.44-28 44.43 1.21 4.38 3.68 6.53 8.26 7.91Zm4.23-51.07c0-6.26-2.05-12.6-4-14.42-4.12 2.95-7.16 9.51-9.44 18.25 0 8.78-.07 17.06-.1 22.94 9.66-8.73 13.54-18.84 13.54-26.77Z" clip-rule="evenodd"/></svg>