<svg width="32" height="32" viewBox="0 0 32 32" fill="none" xmlns="http://www.w3.org/2000/svg">
<path d="M5.6 10.4C6.925 10.4 8 9.32501 8 8.00001C8 6.67501 6.925 5.60001 5.6 5.60001C4.275 5.60001 3.2 6.67501 3.2 8.00001C3.2 9.32501 4.275 10.4 5.6 10.4ZM12.8 6.40001C11.915 6.40001 11.2 7.11501 11.2 8.00001C11.2 8.88501 11.915 9.60001 12.8 9.60001H27.2C28.085 9.60001 28.8 8.88501 28.8 8.00001C28.8 7.11501 28.085 6.40001 27.2 6.40001H12.8ZM12.8 14.4C11.915 14.4 11.2 15.115 11.2 16C11.2 16.885 11.915 17.6 12.8 17.6H27.2C28.085 17.6 28.8 16.885 28.8 16C28.8 15.115 28.085 14.4 27.2 14.4H12.8ZM12.8 22.4C11.915 22.4 11.2 23.115 11.2 24C11.2 24.885 11.915 25.6 12.8 25.6H27.2C28.085 25.6 28.8 24.885 28.8 24C28.8 23.115 28.085 22.4 27.2 22.4H12.8ZM5.6 26.4C6.925 26.4 8 25.325 8 24C8 22.675 6.925 21.6 5.6 21.6C4.275 21.6 3.2 22.675 3.2 24C3.2 25.325 4.275 26.4 5.6 26.4ZM8 16C8 14.675 6.925 13.6 5.6 13.6C4.275 13.6 3.2 14.675 3.2 16C3.2 17.325 4.275 18.4 5.6 18.4C6.925 18.4 8 17.325 8 16Z" fill="white"/>
</svg>
