<svg xmlns="http://www.w3.org/2000/svg" width="512" height="512"><path fill="none" fill-opacity="0" stroke="#000" stroke-opacity=".02" stroke-width=".3" d="M0 512h512V0H0v512M227 2c8.9-1.28 23.22 1.26 23.19 14.25-.03 13-.2 36.58-.19 52.75.01 16.17.2 37.51 0 55-.2 17.49.54 36.74 0 55-.54 18.26 1.23 36.03 0 55s-23.07 16.47-39 16c-15.93-.46-38.19.2-55 0-16.81-.2-38.33.06-55 0s-39.59-.04-55 0c-15.41.04-39.49 4.13-42.98-13.02-3.48-17.16 4.96-32.73 7.31-47.65 2.35-14.92 9.33-27.3 14.59-40.41 5.27-13.1 12.7-23.74 19.85-35.15 7.15-11.41 15.43-20.66 24.48-30.52s18.48-18.34 28.5-26.5c10.01-8.16 18.5-14.36 26.5-18.55 8-4.19 14.14-9.86 22.05-12.91 7.92-3.05 15.9-7.16 24.47-9.86 8.57-2.71 18.33-6.26 27-8.01C206.44 5.68 216.94 3.45 227 2m47 0c11.52-2.12 23.81 4.09 34.25 4.8 10.44.71 20.93 5.89 31.05 8.91 10.13 3.03 20.19 6.98 28.62 11.42 8.43 4.44 20.4 10.55 32.78 19.17 12.38 8.63 23.6 18.5 34.55 29.45 10.94 10.95 21.07 21.99 29.5 34.5 8.44 12.51 17.26 27.08 23.17 40.83 5.92 13.74 14.16 33.97 16.06 47.94 1.89 13.98 14.19 42.11-3.68 49.28-17.86 7.18-42.76-.38-62.3 1.7s-44.5-.87-64 0-45.77-.23-64 0c-18.23.23-45.9 5.58-48-16-2.1-21.59.91-43.13 0-64-.91-20.87.32-44.15 0-64s-.04-46.16 0-64c.04-17.84-4.24-37.02 12-40M16 261c17.92-1.24 38.16 1.92 57 1 18.84-.92 40.29-.15 59 0s41.05-1.31 59 0c17.95 1.31 38.45-4.67 51.77 2.57s5.66 26.1 7.23 43.43c1.57 17.33-1.18 40.11 0 59s-1.58 39.06 0 59c1.58 19.94-3.04 37.82 0 59s-16.41 27-33.22 22.22c-16.81-4.77-31.64-5.34-46.46-11.54-14.81-6.2-27.49-10.72-40.4-18.6-12.91-7.88-24.08-14.41-35.15-23.85-11.07-9.44-20.07-18.56-30.02-28.98-9.95-10.42-16.67-21.66-24.52-33.48-7.85-11.81-14.44-25.89-20.15-38.85-5.72-12.96-8.38-24.87-11.27-34.17-2.89-9.31-3.34-19.37-5.21-29.5C1.74 278.12 3.13 261.89 16 261m260 0c19.4-1.12 41.81 2.2 62 1 20.19-1.2 43.14.65 63 0s44.24.53 63 0c18.76-.53 38.69-3.25 44.19 10.25 5.5 13.51-2.1 22.19-2.9 34.05-.8 11.85-4.6 19.62-7.86 30.47-3.26 10.85-6.74 19.72-13.73 32.93-7 13.2-14.76 27.12-23.95 39.05-9.2 11.93-18.69 22.39-30 33-11.31 10.61-21.91 19.6-35 28-13.08 8.41-27.46 15.36-41.98 22.02-14.52 6.66-33.36 9.91-48.79 14.21-15.44 4.29-42.28 6.99-41.98-14.98.3-21.97-.15-43.09 0-64 .15-20.91-.08-43.38 0-63 .08-19.62-.07-45.59 0-63 .07-17.41-3.95-38.97 14-40Z"/><path fill="none" fill-opacity="0" stroke="#000" stroke-width=".3" d="M227 2c-10.06 1.45-20.56 3.68-29.23 5.42-8.67 1.75-18.43 5.3-27 8.01-8.57 2.7-16.55 6.81-24.47 9.86-7.91 3.05-14.05 8.72-22.05 12.91-8 4.19-16.49 10.39-26.5 18.55-10.02 8.16-19.45 16.64-28.5 26.5s-17.33 19.11-24.48 30.52c-7.15 11.41-14.58 22.05-19.85 35.15-5.26 13.11-12.24 25.49-14.59 40.41-2.35 14.92-10.79 30.49-7.31 47.65C6.51 254.13 30.59 250.04 46 250c15.41-.04 38.33-.06 55 0s38.19-.2 55 0c16.81.2 39.07-.46 55 0 15.93.47 37.77 2.97 39-16 1.23-18.97-.54-36.74 0-55 .54-18.26-.2-37.51 0-55 .2-17.49.01-38.83 0-55s.16-39.75.19-52.75C250.22 3.26 235.9.72 227 2m9 16c5.07 7.12-.6 20.85 1 30 1.6 9.15-.68 21.22 0 31 .68 9.78-.22 20.96 0 31s.11 20.89 0 31 .5 20.97 0 31c-.5 10.03 1.23 21.25 0 31s3.14 22.66-1 31c-.94 1.9-.03 1.02-2 2-8.25 4.1-20.35-.16-30 1-9.65 1.16-21.01-.47-31 0-9.99.47-20.9-.09-31 0-10.1.09-20.95.24-31 0s-21.19.73-31 0c-9.81-.73-21.78 1.69-31 0-9.22-1.69-23.8 4.12-31-1-5.46-3.89 1.15-18.73 1.33-25.67.18-6.94 4.78-18.07 6.6-25.4 1.81-7.34 5.3-16.55 8.38-23.62 3.07-7.08 6.36-14.2 10-21 3.63-6.81 8.29-13.13 12.44-19.56 4.15-6.43 8.61-12.61 13.55-18.45 4.94-5.84 10.02-11.09 15.45-16.55 5.43-5.46 10.16-10.09 16-15 5.84-4.9 12.08-9.23 18.33-13.67 6.25-4.44 13.26-8.33 20-12 6.73-3.68 13.39-7.67 20.61-10.39 7.23-2.71 15.96-6.87 23.33-8.67 7.38-1.79 18.6-6.29 25.65-6.35 7.06-.05 22.2-7.48 26.33-1.67ZM274 2c-16.24 2.98-11.96 22.16-12 40-.04 17.84-.32 44.15 0 64s-.91 43.13 0 64c.91 20.87-2.1 42.41 0 64 2.1 21.58 29.77 16.23 48 16 18.23-.23 44.5.87 64 0s44.46 2.08 64 0 44.44 5.48 62.3-1.7c17.87-7.17 5.57-35.3 3.68-49.28-1.9-13.97-10.14-34.2-16.06-47.94-5.91-13.75-14.73-28.32-23.17-40.83-8.43-12.51-18.56-23.55-29.5-34.5C424.3 64.8 413.08 54.93 400.7 46.3c-12.38-8.62-24.35-14.73-32.78-19.17-8.43-4.44-18.49-8.39-28.62-11.42-10.12-3.02-20.61-8.2-31.05-8.91C297.81 6.09 285.52-.12 274 2m220 234c-7.06 5.1-20.88-.62-30 1-9.12 1.62-21.23-.69-31 0s-20.96-.22-31 0-20.89.11-31 0-20.97.5-31 0c-10.03-.5-21.25 1.23-31 0s-22.66 3.14-31-1c-1.9-.94-1.02-.03-2-2-4.1-8.25.16-20.35-1-30-1.16-9.65.47-21.01 0-31-.47-9.99.08-20.91 0-31s-.24-20.96 0-31-.73-21.2 0-31-1.71-21.8 0-31-4.15-23.86 1-31c4.52-6.26 20.6 1.81 28.02 1.98 7.42.16 19.31 4.81 27.05 6.95 7.74 2.13 17.03 6.2 24.61 9.39 7.58 3.19 15.2 7.77 22.4 11.6 7.19 3.84 13.63 9.06 20.17 13.83 6.53 4.77 13.07 9.35 19 15 5.92 5.66 11.83 11.58 17.5 17.5s10.28 12.34 15.17 18.83c4.89 6.49 9.54 13.2 13.83 20.17 4.3 6.96 8.02 15.27 11.23 22.77 3.2 7.51 8.08 16.29 9.94 24.06 1.87 7.76 6.91 19.55 7.06 26.94.14 7.4 8.24 24.49 2.02 28.98Z"/><path fill="none" fill-opacity="0" stroke="#F8B0C6" stroke-width=".3" d="M18 236c7.31 3.51 18.76-1.58 27 0 8.24 1.58 18.35-.7 27 0 8.65.7 18.17-.28 27 0 8.83.28 18.1-.05 27 0 8.9.05 18.09.14 27 0s18.14.43 27 0 18.28 1.01 27 0c8.72-1.01 18.62 2.25 27 0 1.97-.98 1.06-.1 2-2 2.25-8.38-1.01-18.28 0-27 1.01-8.72-.43-18.14 0-27s-.14-18.09 0-27 .05-18.1 0-27c-.05-8.9.28-18.17 0-27-.28-8.83.7-18.35 0-27-.7-8.65 1.58-18.76 0-27-1.58-8.24 3.51-19.69 0-27-4.13-5.81-19.27 1.62-26.33 1.67-7.05.06-18.27 4.56-25.65 6.35-7.37 1.8-16.1 5.96-23.33 8.67-7.22 2.72-13.88 6.71-20.61 10.39-6.74 3.67-13.75 7.56-20 12s-12.49 8.77-18.33 13.67c-5.84 4.91-10.57 9.54-16 15-5.43 5.46-10.51 10.71-15.45 16.55-4.94 5.84-9.4 12.02-13.55 18.45s-8.81 12.75-12.44 19.56c-3.64 6.8-6.93 13.92-10 21-3.08 7.07-6.57 16.28-8.38 23.62-1.82 7.33-6.42 18.46-6.6 25.4-.18 6.94-6.79 21.78-1.33 25.67m188-45c.51 3.13.44 5.95 0 9-.47 12.31-5.29 23.37-18 26-3.78.78-7.33.52-11 0-12.87-.49-24.3-7.74-32-18-7.02 10.7-19.14 17.93-32 18-3.4.49-6.64.55-10 0-24.9-1.35-21.8-43.1-11-57-15.68-3.85-35.49-24.72-30-43 5.49-18.28 35.64-23.6 51-18-1.04-17.18 12.63-41.78 32-42 19.37-.22 33.28 25.11 33 42 15.62-6.21 45.97.66 50.78 19.22 4.81 18.57-15.84 37.26-30.78 42.78 4.01 6.39 7.92 13.21 8 21Z"/><path fill="none" fill-opacity="0" stroke="#FBEBC1" stroke-width=".3" d="M276 18c-3.57 7.23 1.61 18.8 0 27s.71 18.37 0 27c-.71 8.63.29 18.17 0 27-.29 8.83.05 18.1 0 27-.05 8.9-.14 18.09 0 27s-.43 18.14 0 27-1.01 18.28 0 27c1.01 8.72-2.26 18.62 0 27 .98 1.97.1 1.06 2 2 8.38 2.25 18.28-1.01 27 0 8.72 1.01 18.14-.43 27 0s18.09-.14 27 0 18.1.05 27 0c8.9-.05 18.17.29 27 0 8.83-.29 18.37.71 27 0 8.63-.71 18.8 1.61 27 0s19.77 3.57 27 0c6.22-4.49-1.88-21.58-2.02-28.98-.15-7.39-5.19-19.18-7.06-26.94-1.86-7.77-6.74-16.55-9.94-24.06-3.21-7.5-6.93-15.81-11.23-22.77-4.29-6.97-8.94-13.68-13.83-20.17-4.89-6.49-9.5-12.91-15.17-18.83a566.215 566.215 0 0 0-17.5-17.5c-5.93-5.65-12.47-10.23-19-15-6.54-4.77-12.98-9.99-20.17-13.83-7.2-3.83-14.82-8.41-22.4-11.6-7.58-3.19-16.87-7.26-24.61-9.39-7.74-2.14-19.63-6.79-27.05-6.95-7.42-.17-23.5-8.24-28.02-1.98m87 42c8.13 1.69 3.94 14.44 5 20 1.06 5.56.37 19.14-8.67 15.67-9.04-3.47-9.29-38.36 3.67-35.67m-32 24c9.14 1.47 11.59 20.57.98 19.98-10.62-.6-12.26-21.79-.98-19.98m64 0c9.46 2.07 3.1 22.46-6.67 19.67-9.78-2.79-3.32-21.85 6.67-19.67m-99 16c7.83 1.66 8.73 8.34 17.25 10.75 8.51 2.42 4.69 16.62-4.25 13.25-8.94-3.37-9.38-6.59-17.75-10.25-8.36-3.66-5.55-15.93 4.75-13.75m137 0c8 3.12.64 15.83-5.75 16.25-6.38.43-12.12 11.78-19.92 7.42-7.8-4.36-.51-14.04 5.9-15.44 6.41-1.4 12.07-11.24 19.77-8.23m-64 2c31.61 5.13 47.71 46.88 26.75 71.75-20.97 24.86-61.28 20.84-74.67-9.83-13.4-30.66 12.54-67.67 47.92-61.92m-63 37c11.73 3.56.73 20.4-10 14-10.73-6.4-.87-17.3 10-14m121 0c10.99 3.34.66 20.39-10 14-10.66-6.39-1.75-17.57 10-14m-112 29c7.48 2.8 2.53 14.97-4.25 15.75-6.77.78-12.65 11.62-20.75 8.25-8.1-3.37-1.96-14.08 4.7-15.3 6.65-1.23 12.36-11.67 20.3-8.7m99 0c7.55 1.78 8.98 8.19 17.25 10.75 8.26 2.57 3.8 16.74-4.92 12.92-8.72-3.82-9.49-6.43-17.58-10.42-8.08-4-4.54-15.55 5.25-13.25m-78 21c8.49 3.31.35 22.41-8.67 18.67-9.02-3.75-1.61-22.68 8.67-18.67m57 0c9.41 3.16 7.85 22.19-2.67 18.67-10.52-3.52-9.02-22.59 2.67-18.67m-30 7c8.13 1.78 3.94 14.38 5 20 1.06 5.62.38 19.08-8.67 15.67-9.06-3.41-9.27-38.5 3.67-35.67Z"/><path fill="none" fill-opacity="0" stroke="#7C5863" stroke-width=".3" d="M236 234c4.14-8.34-.23-21.25 1-31s-.5-20.97 0-31c.5-10.03-.11-20.89 0-31s.22-20.96 0-31 .68-21.22 0-31c-.68-9.78 1.6-21.85 0-31-1.6-9.15 4.07-22.88-1-30 3.51 7.31-1.58 18.76 0 27 1.58 8.24-.7 18.35 0 27 .7 8.65-.28 18.17 0 27 .28 8.83-.05 18.1 0 27 .05 8.9.14 18.09 0 27s.43 18.14 0 27 1.01 18.28 0 27c-1.01 8.72 2.25 18.62 0 27Z"/><path fill="none" fill-opacity="0" stroke="#7D7560" stroke-width=".3" d="M276 234c-2.26-8.38 1.01-18.28 0-27-1.01-8.72.43-18.14 0-27s.14-18.09 0-27-.05-18.1 0-27c.05-8.9-.29-18.17 0-27 .29-8.83-.71-18.37 0-27 .71-8.63-1.61-18.8 0-27s-3.57-19.77 0-27c-5.15 7.14.71 21.8-1 31s.73 21.2 0 31 .24 20.96 0 31-.08 20.91 0 31-.47 21.01 0 31c.47 9.99-1.16 21.35 0 31 1.16 9.65-3.1 21.75 1 30Z"/><path fill="none" fill-opacity="0" stroke="#000" stroke-width=".3" d="M363 60c-12.96-2.69-12.71 32.2-3.67 35.67 9.04 3.47 9.73-10.11 8.67-15.67-1.06-5.56 3.13-18.31-5-20ZM103 226c3.28.18 6.72.13 10 0 12.86-.07 24.98-7.3 32-18 7.7 10.26 19.13 17.51 32 18 3.57.14 7.45.32 11 0 12.71-2.63 17.53-13.69 18-26 .11-2.96.16-6.05 0-9-.08-7.79-3.99-14.61-8-21 14.94-5.52 35.59-24.21 30.78-42.78-4.81-18.56-35.16-25.43-50.78-19.22.28-16.89-13.63-42.22-33-42-19.37.22-33.04 24.82-32 42-15.36-5.6-45.51-.28-51 18-5.49 18.28 14.32 39.15 30 43-10.8 13.9-13.9 55.65 11 57m112-96c-1.22 8.24-6.79 21.85-16.08 23.92-9.28 2.07-23.28 10.59-15 21.16 8.28 10.57 9.97 17.13 7.15 29.99-2.81 12.86-18.58 6.97-26.76 2.62-8.19-4.34-11.43-21.15-22.38-15.76-10.95 5.38-9.05 14.73-22.01 18.99-12.95 4.27-21.1.21-21.92-13.92-.82-14.13 10-18.02 11-30 .99-11.99-18.19-9.43-23.25-16.75-5.05-7.33-16.22-18.14-4.52-25.02 11.7-6.88 18.96-6.46 32.78-2.24 13.81 4.22 12.93-18.05 14.31-25.67 1.39-7.61 13.34-21.39 20.93-15.57 7.58 5.83 17.03 14.36 14.75 26.25-2.29 11.89 9.39 18.39 20.68 12.68 11.29-5.71 22.51 3.1 30.32 9.32Z"/><path fill="none" fill-opacity="0" stroke="#F05081" stroke-width=".3" d="M215 130c-7.81-6.22-19.03-15.03-30.32-9.32-11.29 5.71-22.97-.79-20.68-12.68 2.28-11.89-7.17-20.42-14.75-26.25-7.59-5.82-19.54 7.96-20.93 15.57-1.38 7.62-.5 29.89-14.31 25.67-13.82-4.22-21.08-4.64-32.78 2.24-11.7 6.88-.53 17.69 4.52 25.02 5.06 7.32 24.24 4.76 23.25 16.75-1 11.98-11.82 15.87-11 30 .82 14.13 8.97 18.19 21.92 13.92 12.96-4.26 11.06-13.61 22.01-18.99 10.95-5.39 14.19 11.42 22.38 15.76 8.18 4.35 23.95 10.24 26.76-2.62 2.82-12.86 1.13-19.42-7.15-29.99-8.28-10.57 5.72-19.09 15-21.16 9.29-2.07 14.86-15.68 16.08-23.92m-64-5c34.42 6.17 24.26 62.42-11 55-35.26-7.42-24.41-61.35 11-55Z"/><path fill="none" fill-opacity="0" stroke="#000" stroke-width=".3" d="M331 84c-11.28-1.81-9.64 19.38.98 19.98 10.61.59 8.16-18.51-.98-19.98ZM395 84c-9.99-2.18-16.45 16.88-6.67 19.67 9.77 2.79 16.13-17.6 6.67-19.67ZM296 100c-10.3-2.18-13.11 10.09-4.75 13.75 8.37 3.66 8.81 6.88 17.75 10.25s12.76-10.83 4.25-13.25c-8.52-2.41-9.42-9.09-17.25-10.75ZM433 100c-7.7-3.01-13.36 6.83-19.77 8.23-6.41 1.4-13.7 11.08-5.9 15.44 7.8 4.36 13.54-6.99 19.92-7.42 6.39-.42 13.75-13.13 5.75-16.25Z"/><path fill="none" fill-opacity="0" stroke="#000" stroke-width=".3" d="M369 102c-35.38-5.75-61.32 31.26-47.92 61.92 13.39 30.67 53.7 34.69 74.67 9.83 20.96-24.87 4.86-66.62-26.75-71.75m-2 14c38.42 6.24 26.3 68.63-12 60-38.3-8.63-25.89-66.15 12-60Z"/><path fill="none" fill-opacity="0" stroke="#F7C547" stroke-width=".3" d="M367 116c-37.89-6.15-50.3 51.37-12 60 38.3 8.63 50.42-53.76 12-60Z"/><path fill="none" fill-opacity="0" stroke="#000" stroke-width=".3" d="M151 125c-35.41-6.35-46.26 47.58-11 55 35.26 7.42 45.42-48.83 11-55m-2 14c16.58 3.86 10.26 31.66-7 27-17.26-4.66-10.53-31.08 7-27Z"/><path fill="none" fill-opacity="0" stroke="#F6C446" stroke-width=".3" d="M149 139c-17.53-4.08-24.26 22.34-7 27s23.58-23.14 7-27Z"/><path fill="none" fill-opacity="0" stroke="#000" stroke-width=".3" d="M306 139c-10.87-3.3-20.73 7.6-10 14s21.73-10.44 10-14ZM427 139c-11.75-3.57-20.66 7.61-10 14s20.99-10.66 10-14ZM315 168c-7.94-2.97-13.65 7.47-20.3 8.7-6.66 1.22-12.8 11.93-4.7 15.3 8.1 3.37 13.98-7.47 20.75-8.25 6.78-.78 11.73-12.95 4.25-15.75ZM414 168c-9.79-2.3-13.33 9.25-5.25 13.25 8.09 3.99 8.86 6.6 17.58 10.42 8.72 3.82 13.18-10.35 4.92-12.92-8.27-2.56-9.7-8.97-17.25-10.75ZM336 189c-10.28-4.01-17.69 14.92-8.67 18.67 9.02 3.74 17.16-15.36 8.67-18.67ZM393 189c-11.69-3.92-13.19 15.15-2.67 18.67 10.52 3.52 12.08-15.51 2.67-18.67Z"/><path fill="none" fill-opacity="0" stroke="#785560" stroke-width=".3" d="M206 200c.44-3.05.51-5.87 0-9 .16 2.95.11 6.04 0 9Z"/><path fill="none" fill-opacity="0" stroke="#000" stroke-width=".3" d="M363 196c-12.94-2.83-12.73 32.26-3.67 35.67 9.05 3.41 9.73-10.05 8.67-15.67-1.06-5.62 3.13-18.22-5-20Z"/><path fill="none" fill-opacity="0" stroke="#644750" stroke-width=".3" d="M113 226c-3.28.13-6.72.18-10 0 3.36.55 6.6.49 10 0Z"/><path fill="none" fill-opacity="0" stroke="#674953" stroke-width=".3" d="M188 226c-3.55.32-7.43.14-11 0 3.67.52 7.22.78 11 0Z"/><path fill="none" fill-opacity="0" stroke="#845E6A" stroke-width=".3" d="M234 236c-8.38 2.25-18.28-1.01-27 0-8.72 1.01-18.14-.43-27 0s-18.09-.14-27 0-18.1.05-27 0c-8.9-.05-18.17.28-27 0-8.83-.28-18.35.7-27 0-8.65-.7-18.76 1.58-27 0-8.24-1.58-19.69 3.51-27 0 7.2 5.12 21.78-.69 31 1 9.22 1.69 21.19-.73 31 0 9.81.73 20.95-.24 31 0s20.9.09 31 0c10.1-.09 21.01.47 31 0 9.99-.47 21.35 1.16 31 0 9.65-1.16 21.75 3.1 30-1Z"/><path fill="none" fill-opacity="0" stroke="#867D67" stroke-width=".3" d="M494 236c-7.23 3.57-18.8-1.61-27 0s-18.37-.71-27 0c-8.63.71-18.17-.29-27 0-8.83.29-18.1-.05-27 0-8.9.05-18.09.14-27 0s-18.14.43-27 0-18.28 1.01-27 0c-8.72-1.01-18.62 2.25-27 0 8.34 4.14 21.25-.23 31 1s20.97-.5 31 0c10.03.5 20.89-.11 31 0s20.96.22 31 0 21.23.69 31 0 21.88 1.62 31 0c9.12-1.62 22.94 4.1 30-1Z"/><path fill="none" fill-opacity="0" stroke="#000" stroke-width=".3" d="M16 261c-12.87.89-14.26 17.12-12.4 27.25 1.87 10.13 2.32 20.19 5.21 29.5 2.89 9.3 5.55 21.21 11.27 34.17 5.71 12.96 12.3 27.04 20.15 38.85 7.85 11.82 14.57 23.06 24.52 33.48 9.95 10.42 18.95 19.54 30.02 28.98 11.07 9.44 22.24 15.97 35.15 23.85 12.91 7.88 25.59 12.4 40.4 18.6 14.82 6.2 29.65 6.77 46.46 11.54C233.59 512 253.04 506.18 250 485c-3.04-21.18 1.58-39.06 0-59-1.58-19.94 1.18-40.11 0-59s1.57-41.67 0-59 6.09-36.19-7.23-43.43c-13.32-7.24-33.82-1.26-51.77-2.57-17.95-1.31-40.29.15-59 0s-40.16-.92-59 0c-18.84.92-39.08-2.24-57-1m218 15c1.9.94 1.02.03 2 2 4.1 8.25-.16 20.35 1 30 1.16 9.65-.47 21.01 0 31 .47 9.99-.09 20.9 0 31 .09 10.1.24 20.95 0 31s.73 21.19 0 31c-.73 9.81 1.69 21.78 0 31-1.69 9.22 4.12 23.8-1 31-3.89 5.47-18.7-1.15-25.67-1.33-6.97-.18-18.02-4.83-25.4-6.6-7.39-1.76-16.3-5.82-23.61-8.39-7.31-2.58-13.75-6.86-20.57-10.43-6.81-3.58-13.8-7.46-20-12-6.19-4.55-12.66-8.54-18.5-13.5-5.83-4.97-11.03-10.04-16.5-15.5-5.47-5.46-10.14-10.12-15-16-4.86-5.89-9.25-12.06-13.67-18.33-4.42-6.27-8.33-13.25-12-20-3.68-6.74-7.64-13.39-10.39-20.61-2.74-7.23-6.89-15.98-8.62-23.38-1.73-7.4-6.29-18.56-6.4-25.6-.1-7.04-7.45-22.22-1.67-26.33 7.12-5.07 20.85.61 30-1 9.15-1.61 21.22.68 31 0 9.78-.68 20.96.22 31 0s20.89-.11 31 0 20.97-.5 31 0c10.03.5 21.25-1.23 31 0s22.66-3.14 31 1ZM276 261c-17.95 1.03-13.93 22.59-14 40-.07 17.41.08 43.38 0 63-.08 19.62.15 42.09 0 63-.15 20.91.3 42.03 0 64s26.54 19.27 41.98 14.98c15.43-4.3 34.27-7.55 48.79-14.21 14.52-6.66 28.9-13.61 41.98-22.02 13.09-8.4 23.69-17.39 35-28 11.31-10.61 20.8-21.07 30-33 9.19-11.93 16.95-25.85 23.95-39.05 6.99-13.21 10.47-22.08 13.73-32.93 3.26-10.85 7.06-18.62 7.86-30.47.8-11.86 8.4-20.54 2.9-34.05-5.5-13.5-25.43-10.78-44.19-10.25-18.76.53-43.14-.65-63 0s-42.81-1.2-63 0c-20.19 1.2-42.6-2.12-62-1m218 15c6.23 4.5-1.77 20.62-1.98 28.02-.2 7.41-5.06 19.23-6.95 27.05-1.88 7.82-6.58 16.62-9.84 24.16-3.26 7.54-6.84 15.86-11.15 22.85-4.32 6.99-8.9 13.71-13.83 20.17-4.94 6.46-9.32 13.12-15.02 18.98-5.7 5.87-11.47 12-17.48 17.52s-12.27 10.45-18.83 15.17c-6.56 4.72-13.05 9.94-20.17 13.83-7.11 3.89-14.91 8.41-22.44 11.56-7.53 3.14-16.66 7.58-24.38 9.62-7.73 2.04-19.58 6.82-26.95 7.05-7.37.22-24.53 8.19-28.98 2.02-5.1-7.06.62-20.88-1-30-1.62-9.12.69-21.23 0-31s.22-20.96 0-31-.11-20.89 0-31-.5-20.97 0-31c.5-10.03-1.23-21.25 0-31s-3.14-22.66 1-31c.94-1.9.03-1.02 2-2 8.25-4.1 20.35.16 30-1 9.65-1.16 21.01.47 31 0 9.99-.47 20.91.08 31 0s20.96-.24 31 0 21.2-.73 31 0 21.8-1.71 31 0 23.86-4.15 31 1Z"/><path fill="none" fill-opacity="0" stroke="#50566D" stroke-width=".3" d="M18 276c7.31-3.51 18.76 1.58 27 0 8.24-1.58 18.35.7 27 0 8.65-.7 18.17.28 27 0 8.83-.28 18.1.05 27 0 8.9-.05 18.09-.14 27 0s18.14-.43 27 0 18.28-1.01 27 0c8.72 1.01 18.62-2.25 27 0-8.34-4.14-21.25.23-31-1s-20.97.5-31 0c-10.03-.5-20.89.11-31 0s-20.96-.22-31 0-21.22-.68-31 0c-9.78.68-21.85-1.61-31 0-9.15 1.61-22.88-4.07-30 1Z"/><path fill="none" fill-opacity="0" stroke="#745C21" stroke-width=".3" d="M278 276c8.38-2.26 18.28 1.01 27 0 8.72-1.01 18.14.43 27 0s18.09.14 27 0 18.1-.05 27 0c8.9.05 18.17-.29 27 0 8.83.29 18.37-.71 27 0 8.63.71 18.8-1.61 27 0s19.77-3.57 27 0c-7.14-5.15-21.8.71-31-1s-21.2.73-31 0-20.96.24-31 0-20.91-.08-31 0-21.01-.47-31 0c-9.99.47-21.35-1.16-31 0-9.65 1.16-21.75-3.1-30 1Z"/><path fill="none" fill-opacity="0" stroke="#ACBAE9" stroke-width=".3" d="M236 494c3.51-7.31-1.58-18.76 0-27 1.58-8.24-.7-18.35 0-27 .7-8.65-.28-18.17 0-27 .28-8.83-.05-18.1 0-27 .05-8.9.14-18.09 0-27s.43-18.14 0-27 1.01-18.28 0-27c-1.01-8.72 2.25-18.62 0-27-.98-1.97-.1-1.06-2-2-8.38-2.25-18.28 1.01-27 0-8.72-1.01-18.14.43-27 0s-18.09.14-27 0-18.1-.05-27 0c-8.9.05-18.17-.28-27 0-8.83.28-18.35-.7-27 0-8.65.7-18.76-1.58-27 0-8.24 1.58-19.69-3.51-27 0-5.78 4.11 1.57 19.29 1.67 26.33.11 7.04 4.67 18.2 6.4 25.6 1.73 7.4 5.88 16.15 8.62 23.38 2.75 7.22 6.71 13.87 10.39 20.61 3.67 6.75 7.58 13.73 12 20s8.81 12.44 13.67 18.33c4.86 5.88 9.53 10.54 15 16 5.47 5.46 10.67 10.53 16.5 15.5 5.84 4.96 12.31 8.95 18.5 13.5 6.2 4.54 13.19 8.42 20 12 6.82 3.57 13.26 7.85 20.57 10.43 7.31 2.57 16.22 6.63 23.61 8.39 7.38 1.77 18.43 6.42 25.4 6.6 6.97.18 21.78 6.8 25.67 1.33m-51-144c-1.32 2.67.07 8.95 0 12-.07 3.05-1.13 9.19 0 12 1.92 3.2 7.14 3.86 10 6 5.28-2.86 9.91-11.38 17.07-8.07 7.16 3.3 3.15 14.15-4.07 15.07 3.95 3.62 13.26 6.89 9.07 14.07-4.18 7.19-11.24 1.87-16.07-1.07 6.37 12.73-17.95 16.71-14.99 4.99 2.96-11.72-3.15-20.63-13.7-15.68-10.56 4.94-17.46 8.18-15.31 20.69 4.87 3.48 14.76 3.01 15.92 11.08 1.16 8.06-11.5 9.59-15.92 3.92.47 5.36.57 15-7.03 14.97-7.59-.02-7.61-9.48-6.97-14.97-4.7 4.79-16.86 4.29-15.99-4.01.86-8.29 10.73-7.43 15.99-10.99v-12c-10.18-4.2-20.4-16.46-31-6-.14 5.93 4.52 15.91-2.08 19.92-6.61 4.01-13.36-5.17-10.92-11.92-4.96 2.29-11.15 8.18-15.75 1.75S86.4 389.65 92 388c-6.04-2.01-12.01-11.74-4.92-15.92 7.09-4.17 12.51 5.34 17.92 7.92 3.64-1.16 6.2-4.45 10-5-2.18-9.92 4.67-20.4-4.08-26.92-8.74-6.53-10.17 4.35-19.93 4.91-9.76.57-7.09-13.9.01-16.99-18.02-3.39-3.1-25.13 8-11-6.52-10.07 12.6-17.1 13.92-8.92 1.31 8.19-1.44 21.76 9.16 21.84 10.59.09 11.04-10.44 20.92-10.92 4.32-14.28-6.49-11.84-14.23-18.77s7.89-17.54 14.23-9.23c-.76-5.75-.39-14.31 7.01-13.99 7.4.32 7.31 8.39 6.99 13.99 6.25-8.33 21.5 1.92 13.75 8.75-7.76 6.82-17.72 5.37-13.75 19.25 4.45 3.09 10.9 4.2 15.08 7.92 4.17 3.73 12.36 2.64 14.84-3 2.48-5.65-5.14-15.1 2.83-19.17 7.97-4.06 11.19 5.16 11.25 11.25 3.37-5.03 20.03-4.75 16.99 4.01-3.03 8.75-11.96 6.83-3.24 14.24 8.72 7.4-7.81 15.49-11.5 8.5-3.7-6.99-13.6-5.3-18.25-.75Z"/><path fill="none" fill-opacity="0" stroke="#F8C647" stroke-width=".3" d="M276 278c-2.25 8.38 1.01 18.28 0 27-1.01 8.72.43 18.14 0 27s.14 18.09 0 27-.05 18.1 0 27c.05 8.9-.29 18.17 0 27 .29 8.83-.71 18.37 0 27 .71 8.63-1.61 18.8 0 27s-3.57 19.77 0 27c4.45 6.17 21.61-1.8 28.98-2.02 7.37-.23 19.22-5.01 26.95-7.05 7.72-2.04 16.85-6.48 24.38-9.62 7.53-3.15 15.33-7.67 22.44-11.56 7.12-3.89 13.61-9.11 20.17-13.83 6.56-4.72 12.82-9.65 18.83-15.17 6.01-5.52 11.78-11.65 17.48-17.52 5.7-5.86 10.08-12.52 15.02-18.98 4.93-6.46 9.51-13.18 13.83-20.17 4.31-6.99 7.89-15.31 11.15-22.85 3.26-7.54 7.96-16.34 9.84-24.16 1.89-7.82 6.75-19.64 6.95-27.05.21-7.4 8.21-23.52 1.98-28.02-7.23-3.57-18.8 1.61-27 0s-18.37.71-27 0c-8.63-.71-18.17.29-27 0-8.83-.29-18.1.05-27 0-8.9-.05-18.09-.14-27 0s-18.14-.43-27 0-18.28-1.01-27 0c-8.72 1.01-18.62-2.26-27 0-1.97.98-1.06.1-2 2m131 69c15.77-.76 34.5 9.05 29.22 25.22-5.28 16.17-6.74 27.26-20.97 37.03-14.22 9.78-30.63 11.67-47.25 7.75-1.74 6.48 5.06 28.61-7.03 27.97-12.08-.63-5.09-21.86-6.97-28.97-15.55 5.94-31.71 2.85-45.75-6.25-14.03-9.11-16.43-19.39-22.18-35.82-5.75-16.44 13.24-29.05 29.93-26.93-1.46-13.05 5.41-32.92 14.3-41.7 8.89-8.77 17.83-24.85 30.71-25.29 12.87-.44 21.79 16.65 30.76 25.22 8.97 8.57 16.09 28.78 15.23 41.77Z"/><path fill="none" fill-opacity="0" stroke="#555C74" stroke-width=".3" d="M236 494c5.12-7.2-.69-21.78 1-31 1.69-9.22-.73-21.19 0-31 .73-9.81-.24-20.95 0-31s.09-20.9 0-31c-.09-10.1.47-21.01 0-31-.47-9.99 1.16-21.35 0-31-1.16-9.65 3.1-21.75-1-30 2.25 8.38-1.01 18.28 0 27 1.01 8.72-.43 18.14 0 27s-.14 18.09 0 27 .05 18.1 0 27c-.05 8.9.28 18.17 0 27-.28 8.83.7 18.35 0 27-.7 8.65 1.58 18.76 0 27-1.58 8.24 3.51 19.69 0 27Z"/><path fill="none" fill-opacity="0" stroke="#7C6223" stroke-width=".3" d="M276 494c-3.57-7.23 1.61-18.8 0-27s.71-18.37 0-27c-.71-8.63.29-18.17 0-27-.29-8.83.05-18.1 0-27-.05-8.9-.14-18.09 0-27s-.43-18.14 0-27-1.01-18.28 0-27c1.01-8.72-2.25-18.62 0-27-4.14 8.34.23 21.25-1 31s.5 20.97 0 31c-.5 10.03.11 20.89 0 31s-.22 20.96 0 31-.69 21.23 0 31-1.62 21.88 0 31c1.62 9.12-4.1 22.94 1 30Z"/><path fill="none" fill-opacity="0" stroke="#000" stroke-width=".3" d="M407 347c.86-12.99-6.26-33.2-15.23-41.77s-17.89-25.66-30.76-25.22c-12.88.44-21.82 16.52-30.71 25.29-8.89 8.78-15.76 28.65-14.3 41.7-16.69-2.12-35.68 10.49-29.93 26.93 5.75 16.43 8.15 26.71 22.18 35.82 14.04 9.1 30.2 12.19 45.75 6.25 1.88 7.11-5.11 28.34 6.97 28.97 12.09.64 5.29-21.49 7.03-27.97 16.62 3.92 33.03 2.03 47.25-7.75 14.23-9.77 15.69-20.86 20.97-37.03 5.28-16.17-13.45-25.98-29.22-25.22m16 18c-1.33 10.05-2.89 19.79-10.25 27.75-7.36 7.96-14.49 10.31-25.77 12.23-11.29 1.91-22.63-5.22-18.98-18.98 3.65-13.76-3.41-23.49 0-38 3.41-14.51-16.91-14.48-14 0s-3.64 24.14 0 38-7.48 21.15-19 19c-11.52-2.15-18.41-4.19-25.75-12.25-7.34-8.06-7.67-18.06-10.25-27.75 7.89-4.83 28.19-.97 29.97-13.03 1.79-12.05 2.22-24.77 9.8-34.2 7.58-9.43 12.48-15.1 21.23-22.77 9.77 5.71 15.09 11.96 22.75 21.25S392.53 337.12 393 350c.47 12.88 21.72 10.92 30 15ZM185 374c-2.22-3.7-2.53-20.49 0-24 4.65-4.55 14.55-6.24 18.25.75 3.69 6.99 20.22-1.1 11.5-8.5-8.72-7.41.21-5.49 3.24-14.24 3.04-8.76-13.62-9.04-16.99-4.01-.06-6.09-3.28-15.31-11.25-11.25-7.97 4.07-.35 13.52-2.83 19.17-2.48 5.64-10.67 6.73-14.84 3-4.18-3.72-10.63-4.83-15.08-7.92-3.97-13.88 5.99-12.43 13.75-19.25 7.75-6.83-7.5-17.08-13.75-8.75.32-5.6.41-13.67-6.99-13.99-7.4-.32-7.77 8.24-7.01 13.99-6.34-8.31-21.97 2.3-14.23 9.23 7.74 6.93 18.55 4.49 14.23 18.77-9.88.48-10.33 11.01-20.92 10.92-10.6-.08-7.85-13.65-9.16-21.84-1.32-8.18-20.44-1.15-13.92 8.92-11.1-14.13-26.02 7.61-8 11-7.1 3.09-9.77 17.56-.01 16.99 9.76-.56 11.19-11.44 19.93-4.91 8.75 6.52 1.9 17 4.08 26.92-3.8.55-6.36 3.84-10 5-5.41-2.58-10.83-12.09-17.92-7.92-7.09 4.18-1.12 13.91 4.92 15.92-5.6 1.65-13.35 7.32-8.75 13.75s10.79.54 15.75-1.75c-2.44 6.75 4.31 15.93 10.92 11.92 6.6-4.01 1.94-13.99 2.08-19.92 10.6-10.46 20.82 1.8 31 6v12c-5.26 3.56-15.13 2.7-15.99 10.99-.87 8.3 11.29 8.8 15.99 4.01-.64 5.49-.62 14.95 6.97 14.97 7.6.03 7.5-9.61 7.03-14.97 4.42 5.67 17.08 4.14 15.92-3.92-1.16-8.07-11.05-7.6-15.92-11.08-2.15-12.51 4.75-15.75 15.31-20.69 10.55-4.95 16.66 3.96 13.7 15.68-2.96 11.72 21.36 7.74 14.99-4.99 4.83 2.94 11.89 8.26 16.07 1.07 4.19-7.18-5.12-10.45-9.07-14.07 7.22-.92 11.23-11.77 4.07-15.07-7.16-3.31-11.79 5.21-17.07 8.07-2.86-2.14-8.08-2.8-10-6m-15-23c2.3 3.95 2.32 19.13 0 23-2.88 4.81-12.74 8.27-18.08 10.92-5.34 2.65-13.04-6.04-19.15-8.69-6.11-2.65-3.25-19.79-3.77-26.23 7.23-.12 13.91-11.58 21.03-10.97 7.11.6 14.02 9.3 19.97 11.97Z"/><path fill="none" fill-opacity="0" stroke="#B18004" stroke-width=".3" d="M423 365c-8.28-4.08-29.53-2.12-30-15-.47-12.88-2.59-24.46-10.25-33.75S369.77 300.71 360 295c-8.75 7.67-13.65 13.34-21.23 22.77s-8.01 22.15-9.8 34.2c-1.78 12.06-22.08 8.2-29.97 13.03 2.58 9.69 2.91 19.69 10.25 27.75 7.34 8.06 14.23 10.1 25.75 12.25 11.52 2.15 22.64-5.14 19-19-3.64-13.86 2.91-23.52 0-38s17.41-14.51 14 0 3.65 24.24 0 38c-3.65 13.76 7.69 20.89 18.98 18.98 11.28-1.92 18.41-4.27 25.77-12.23 7.36-7.96 8.92-17.7 10.25-27.75Z"/><path fill="none" fill-opacity="0" stroke="#E8EBFA" stroke-width=".3" d="M170 374c1.11-2.76.11-7.9 0-11-.11-3.1 1.13-9.08 0-12-5.95-2.67-12.86-11.37-19.97-11.97-7.12-.61-13.8 10.85-21.03 10.97.52 6.44-2.34 23.58 3.77 26.23 6.11 2.65 13.81 11.34 19.15 8.69 5.34-2.65 15.2-6.11 18.08-10.92Z"/><path fill="none" fill-opacity="0" stroke="#616985" stroke-width=".3" d="M185 374c-1.13-2.81-.07-8.95 0-12 .07-3.05-1.32-9.33 0-12-2.53 3.51-2.22 20.3 0 24Z"/><path fill="none" fill-opacity="0" stroke="#64666D" stroke-width=".3" d="M170 374c2.32-3.87 2.3-19.05 0-23 1.13 2.92-.11 8.9 0 12 .11 3.1 1.11 8.24 0 11Z"/><path fill-opacity=".02" stroke="None" d="M0 512h512V0H0v512M227 2c8.9-1.28 23.22 1.26 23.19 14.25-.03 13-.2 36.58-.19 52.75.01 16.17.2 37.51 0 55-.2 17.49.54 36.74 0 55-.54 18.26 1.23 36.03 0 55s-23.07 16.47-39 16c-15.93-.46-38.19.2-55 0-16.81-.2-38.33.06-55 0s-39.59-.04-55 0c-15.41.04-39.49 4.13-42.98-13.02-3.48-17.16 4.96-32.73 7.31-47.65 2.35-14.92 9.33-27.3 14.59-40.41 5.27-13.1 12.7-23.74 19.85-35.15 7.15-11.41 15.43-20.66 24.48-30.52s18.48-18.34 28.5-26.5c10.01-8.16 18.5-14.36 26.5-18.55 8-4.19 14.14-9.86 22.05-12.91 7.92-3.05 15.9-7.16 24.47-9.86 8.57-2.71 18.33-6.26 27-8.01C206.44 5.68 216.94 3.45 227 2m47 0c11.52-2.12 23.81 4.09 34.25 4.8 10.44.71 20.93 5.89 31.05 8.91 10.13 3.03 20.19 6.98 28.62 11.42 8.43 4.44 20.4 10.55 32.78 19.17 12.38 8.63 23.6 18.5 34.55 29.45 10.94 10.95 21.07 21.99 29.5 34.5 8.44 12.51 17.26 27.08 23.17 40.83 5.92 13.74 14.16 33.97 16.06 47.94 1.89 13.98 14.19 42.11-3.68 49.28-17.86 7.18-42.76-.38-62.3 1.7s-44.5-.87-64 0-45.77-.23-64 0c-18.23.23-45.9 5.58-48-16-2.1-21.59.91-43.13 0-64-.91-20.87.32-44.15 0-64s-.04-46.16 0-64c.04-17.84-4.24-37.02 12-40M16 261c17.92-1.24 38.16 1.92 57 1 18.84-.92 40.29-.15 59 0s41.05-1.31 59 0c17.95 1.31 38.45-4.67 51.77 2.57s5.66 26.1 7.23 43.43c1.57 17.33-1.18 40.11 0 59s-1.58 39.06 0 59c1.58 19.94-3.04 37.82 0 59s-16.41 27-33.22 22.22c-16.81-4.77-31.64-5.34-46.46-11.54-14.81-6.2-27.49-10.72-40.4-18.6-12.91-7.88-24.08-14.41-35.15-23.85-11.07-9.44-20.07-18.56-30.02-28.98-9.95-10.42-16.67-21.66-24.52-33.48-7.85-11.81-14.44-25.89-20.15-38.85-5.72-12.96-8.38-24.87-11.27-34.17-2.89-9.31-3.34-19.37-5.21-29.5C1.74 278.12 3.13 261.89 16 261m260 0c19.4-1.12 41.81 2.2 62 1 20.19-1.2 43.14.65 63 0s44.24.53 63 0c18.76-.53 38.69-3.25 44.19 10.25 5.5 13.51-2.1 22.19-2.9 34.05-.8 11.85-4.6 19.62-7.86 30.47-3.26 10.85-6.74 19.72-13.73 32.93-7 13.2-14.76 27.12-23.95 39.05-9.2 11.93-18.69 22.39-30 33-11.31 10.61-21.91 19.6-35 28-13.08 8.41-27.46 15.36-41.98 22.02-14.52 6.66-33.36 9.91-48.79 14.21-15.44 4.29-42.28 6.99-41.98-14.98.3-21.97-.15-43.09 0-64 .15-20.91-.08-43.38 0-63 .08-19.62-.07-45.59 0-63 .07-17.41-3.95-38.97 14-40Z"/><path stroke="None" d="M227 2c-10.06 1.45-20.56 3.68-29.23 5.42-8.67 1.75-18.43 5.3-27 8.01-8.57 2.7-16.55 6.81-24.47 9.86-7.91 3.05-14.05 8.72-22.05 12.91-8 4.19-16.49 10.39-26.5 18.55-10.02 8.16-19.45 16.64-28.5 26.5s-17.33 19.11-24.48 30.52c-7.15 11.41-14.58 22.05-19.85 35.15-5.26 13.11-12.24 25.49-14.59 40.41-2.35 14.92-10.79 30.49-7.31 47.65C6.51 254.13 30.59 250.04 46 250c15.41-.04 38.33-.06 55 0s38.19-.2 55 0c16.81.2 39.07-.46 55 0 15.93.47 37.77 2.97 39-16 1.23-18.97-.54-36.74 0-55 .54-18.26-.2-37.51 0-55 .2-17.49.01-38.83 0-55s.16-39.75.19-52.75C250.22 3.26 235.9.72 227 2m9 16c5.07 7.12-.6 20.85 1 30 1.6 9.15-.68 21.22 0 31 .68 9.78-.22 20.96 0 31s.11 20.89 0 31 .5 20.97 0 31c-.5 10.03 1.23 21.25 0 31s3.14 22.66-1 31c-.94 1.9-.03 1.02-2 2-8.25 4.1-20.35-.16-30 1-9.65 1.16-21.01-.47-31 0-9.99.47-20.9-.09-31 0-10.1.09-20.95.24-31 0s-21.19.73-31 0c-9.81-.73-21.78 1.69-31 0-9.22-1.69-23.8 4.12-31-1-5.46-3.89 1.15-18.73 1.33-25.67.18-6.94 4.78-18.07 6.6-25.4 1.81-7.34 5.3-16.55 8.38-23.62 3.07-7.08 6.36-14.2 10-21 3.63-6.81 8.29-13.13 12.44-19.56 4.15-6.43 8.61-12.61 13.55-18.45 4.94-5.84 10.02-11.09 15.45-16.55 5.43-5.46 10.16-10.09 16-15 5.84-4.9 12.08-9.23 18.33-13.67 6.25-4.44 13.26-8.33 20-12 6.73-3.68 13.39-7.67 20.61-10.39 7.23-2.71 15.96-6.87 23.33-8.67 7.38-1.79 18.6-6.29 25.65-6.35 7.06-.05 22.2-7.48 26.33-1.67ZM274 2c-16.24 2.98-11.96 22.16-12 40-.04 17.84-.32 44.15 0 64s-.91 43.13 0 64c.91 20.87-2.1 42.41 0 64 2.1 21.58 29.77 16.23 48 16 18.23-.23 44.5.87 64 0s44.46 2.08 64 0 44.44 5.48 62.3-1.7c17.87-7.17 5.57-35.3 3.68-49.28-1.9-13.97-10.14-34.2-16.06-47.94-5.91-13.75-14.73-28.32-23.17-40.83-8.43-12.51-18.56-23.55-29.5-34.5C424.3 64.8 413.08 54.93 400.7 46.3c-12.38-8.62-24.35-14.73-32.78-19.17-8.43-4.44-18.49-8.39-28.62-11.42-10.12-3.02-20.61-8.2-31.05-8.91C297.81 6.09 285.52-.12 274 2m220 234c-7.06 5.1-20.88-.62-30 1-9.12 1.62-21.23-.69-31 0s-20.96-.22-31 0-20.89.11-31 0-20.97.5-31 0c-10.03-.5-21.25 1.23-31 0s-22.66 3.14-31-1c-1.9-.94-1.02-.03-2-2-4.1-8.25.16-20.35-1-30-1.16-9.65.47-21.01 0-31-.47-9.99.08-20.91 0-31s-.24-20.96 0-31-.73-21.2 0-31-1.71-21.8 0-31-4.15-23.86 1-31c4.52-6.26 20.6 1.81 28.02 1.98 7.42.16 19.31 4.81 27.05 6.95 7.74 2.13 17.03 6.2 24.61 9.39 7.58 3.19 15.2 7.77 22.4 11.6 7.19 3.84 13.63 9.06 20.17 13.83 6.53 4.77 13.07 9.35 19 15 5.92 5.66 11.83 11.58 17.5 17.5s10.28 12.34 15.17 18.83c4.89 6.49 9.54 13.2 13.83 20.17 4.3 6.96 8.02 15.27 11.23 22.77 3.2 7.51 8.08 16.29 9.94 24.06 1.87 7.76 6.91 19.55 7.06 26.94.14 7.4 8.24 24.49 2.02 28.98Z"/><path fill="#F8B0C6" stroke="None" d="M18 236c7.31 3.51 18.76-1.58 27 0 8.24 1.58 18.35-.7 27 0 8.65.7 18.17-.28 27 0 8.83.28 18.1-.05 27 0 8.9.05 18.09.14 27 0s18.14.43 27 0 18.28 1.01 27 0c8.72-1.01 18.62 2.25 27 0 1.97-.98 1.06-.1 2-2 2.25-8.38-1.01-18.28 0-27 1.01-8.72-.43-18.14 0-27s-.14-18.09 0-27 .05-18.1 0-27c-.05-8.9.28-18.17 0-27-.28-8.83.7-18.35 0-27-.7-8.65 1.58-18.76 0-27-1.58-8.24 3.51-19.69 0-27-4.13-5.81-19.27 1.62-26.33 1.67-7.05.06-18.27 4.56-25.65 6.35-7.37 1.8-16.1 5.96-23.33 8.67-7.22 2.72-13.88 6.71-20.61 10.39-6.74 3.67-13.75 7.56-20 12s-12.49 8.77-18.33 13.67c-5.84 4.91-10.57 9.54-16 15-5.43 5.46-10.51 10.71-15.45 16.55-4.94 5.84-9.4 12.02-13.55 18.45s-8.81 12.75-12.44 19.56c-3.64 6.8-6.93 13.92-10 21-3.08 7.07-6.57 16.28-8.38 23.62-1.82 7.33-6.42 18.46-6.6 25.4-.18 6.94-6.79 21.78-1.33 25.67m188-45c.51 3.13.44 5.95 0 9-.47 12.31-5.29 23.37-18 26-3.78.78-7.33.52-11 0-12.87-.49-24.3-7.74-32-18-7.02 10.7-19.14 17.93-32 18-3.4.49-6.64.55-10 0-24.9-1.35-21.8-43.1-11-57-15.68-3.85-35.49-24.72-30-43 5.49-18.28 35.64-23.6 51-18-1.04-17.18 12.63-41.78 32-42 19.37-.22 33.28 25.11 33 42 15.62-6.21 45.97.66 50.78 19.22 4.81 18.57-15.84 37.26-30.78 42.78 4.01 6.39 7.92 13.21 8 21Z"/><path fill="#FBEBC1" stroke="None" d="M276 18c-3.57 7.23 1.61 18.8 0 27s.71 18.37 0 27c-.71 8.63.29 18.17 0 27-.29 8.83.05 18.1 0 27-.05 8.9-.14 18.09 0 27s-.43 18.14 0 27-1.01 18.28 0 27c1.01 8.72-2.26 18.62 0 27 .98 1.97.1 1.06 2 2 8.38 2.25 18.28-1.01 27 0 8.72 1.01 18.14-.43 27 0s18.09-.14 27 0 18.1.05 27 0c8.9-.05 18.17.29 27 0 8.83-.29 18.37.71 27 0 8.63-.71 18.8 1.61 27 0s19.77 3.57 27 0c6.22-4.49-1.88-21.58-2.02-28.98-.15-7.39-5.19-19.18-7.06-26.94-1.86-7.77-6.74-16.55-9.94-24.06-3.21-7.5-6.93-15.81-11.23-22.77-4.29-6.97-8.94-13.68-13.83-20.17-4.89-6.49-9.5-12.91-15.17-18.83a566.215 566.215 0 0 0-17.5-17.5c-5.93-5.65-12.47-10.23-19-15-6.54-4.77-12.98-9.99-20.17-13.83-7.2-3.83-14.82-8.41-22.4-11.6-7.58-3.19-16.87-7.26-24.61-9.39-7.74-2.14-19.63-6.79-27.05-6.95-7.42-.17-23.5-8.24-28.02-1.98m87 42c8.13 1.69 3.94 14.44 5 20 1.06 5.56.37 19.14-8.67 15.67-9.04-3.47-9.29-38.36 3.67-35.67m-32 24c9.14 1.47 11.59 20.57.98 19.98-10.62-.6-12.26-21.79-.98-19.98m64 0c9.46 2.07 3.1 22.46-6.67 19.67-9.78-2.79-3.32-21.85 6.67-19.67m-99 16c7.83 1.66 8.73 8.34 17.25 10.75 8.51 2.42 4.69 16.62-4.25 13.25-8.94-3.37-9.38-6.59-17.75-10.25-8.36-3.66-5.55-15.93 4.75-13.75m137 0c8 3.12.64 15.83-5.75 16.25-6.38.43-12.12 11.78-19.92 7.42-7.8-4.36-.51-14.04 5.9-15.44 6.41-1.4 12.07-11.24 19.77-8.23m-64 2c31.61 5.13 47.71 46.88 26.75 71.75-20.97 24.86-61.28 20.84-74.67-9.83-13.4-30.66 12.54-67.67 47.92-61.92m-63 37c11.73 3.56.73 20.4-10 14-10.73-6.4-.87-17.3 10-14m121 0c10.99 3.34.66 20.39-10 14-10.66-6.39-1.75-17.57 10-14m-112 29c7.48 2.8 2.53 14.97-4.25 15.75-6.77.78-12.65 11.62-20.75 8.25-8.1-3.37-1.96-14.08 4.7-15.3 6.65-1.23 12.36-11.67 20.3-8.7m99 0c7.55 1.78 8.98 8.19 17.25 10.75 8.26 2.57 3.8 16.74-4.92 12.92-8.72-3.82-9.49-6.43-17.58-10.42-8.08-4-4.54-15.55 5.25-13.25m-78 21c8.49 3.31.35 22.41-8.67 18.67-9.02-3.75-1.61-22.68 8.67-18.67m57 0c9.41 3.16 7.85 22.19-2.67 18.67-10.52-3.52-9.02-22.59 2.67-18.67m-30 7c8.13 1.78 3.94 14.38 5 20 1.06 5.62.38 19.08-8.67 15.67-9.06-3.41-9.27-38.5 3.67-35.67Z"/><path fill="#7C5863" stroke="None" d="M236 234c4.14-8.34-.23-21.25 1-31s-.5-20.97 0-31c.5-10.03-.11-20.89 0-31s.22-20.96 0-31 .68-21.22 0-31c-.68-9.78 1.6-21.85 0-31-1.6-9.15 4.07-22.88-1-30 3.51 7.31-1.58 18.76 0 27 1.58 8.24-.7 18.35 0 27 .7 8.65-.28 18.17 0 27 .28 8.83-.05 18.1 0 27 .05 8.9.14 18.09 0 27s.43 18.14 0 27 1.01 18.28 0 27c-1.01 8.72 2.25 18.62 0 27Z"/><path fill="#7D7560" stroke="None" d="M276 234c-2.26-8.38 1.01-18.28 0-27-1.01-8.72.43-18.14 0-27s.14-18.09 0-27-.05-18.1 0-27c.05-8.9-.29-18.17 0-27 .29-8.83-.71-18.37 0-27 .71-8.63-1.61-18.8 0-27s-3.57-19.77 0-27c-5.15 7.14.71 21.8-1 31s.73 21.2 0 31 .24 20.96 0 31-.08 20.91 0 31-.47 21.01 0 31c.47 9.99-1.16 21.35 0 31 1.16 9.65-3.1 21.75 1 30Z"/><path stroke="None" d="M363 60c-12.96-2.69-12.71 32.2-3.67 35.67 9.04 3.47 9.73-10.11 8.67-15.67-1.06-5.56 3.13-18.31-5-20ZM103 226c3.28.18 6.72.13 10 0 12.86-.07 24.98-7.3 32-18 7.7 10.26 19.13 17.51 32 18 3.57.14 7.45.32 11 0 12.71-2.63 17.53-13.69 18-26 .11-2.96.16-6.05 0-9-.08-7.79-3.99-14.61-8-21 14.94-5.52 35.59-24.21 30.78-42.78-4.81-18.56-35.16-25.43-50.78-19.22.28-16.89-13.63-42.22-33-42-19.37.22-33.04 24.82-32 42-15.36-5.6-45.51-.28-51 18-5.49 18.28 14.32 39.15 30 43-10.8 13.9-13.9 55.65 11 57m112-96c-1.22 8.24-6.79 21.85-16.08 23.92-9.28 2.07-23.28 10.59-15 21.16 8.28 10.57 9.97 17.13 7.15 29.99-2.81 12.86-18.58 6.97-26.76 2.62-8.19-4.34-11.43-21.15-22.38-15.76-10.95 5.38-9.05 14.73-22.01 18.99-12.95 4.27-21.1.21-21.92-13.92-.82-14.13 10-18.02 11-30 .99-11.99-18.19-9.43-23.25-16.75-5.05-7.33-16.22-18.14-4.52-25.02 11.7-6.88 18.96-6.46 32.78-2.24 13.81 4.22 12.93-18.05 14.31-25.67 1.39-7.61 13.34-21.39 20.93-15.57 7.58 5.83 17.03 14.36 14.75 26.25-2.29 11.89 9.39 18.39 20.68 12.68 11.29-5.71 22.51 3.1 30.32 9.32Z"/><path fill="#F05081" stroke="None" d="M215 130c-7.81-6.22-19.03-15.03-30.32-9.32-11.29 5.71-22.97-.79-20.68-12.68 2.28-11.89-7.17-20.42-14.75-26.25-7.59-5.82-19.54 7.96-20.93 15.57-1.38 7.62-.5 29.89-14.31 25.67-13.82-4.22-21.08-4.64-32.78 2.24-11.7 6.88-.53 17.69 4.52 25.02 5.06 7.32 24.24 4.76 23.25 16.75-1 11.98-11.82 15.87-11 30 .82 14.13 8.97 18.19 21.92 13.92 12.96-4.26 11.06-13.61 22.01-18.99 10.95-5.39 14.19 11.42 22.38 15.76 8.18 4.35 23.95 10.24 26.76-2.62 2.82-12.86 1.13-19.42-7.15-29.99-8.28-10.57 5.72-19.09 15-21.16 9.29-2.07 14.86-15.68 16.08-23.92m-64-5c34.42 6.17 24.26 62.42-11 55-35.26-7.42-24.41-61.35 11-55Z"/><path stroke="None" d="M331 84c-11.28-1.81-9.64 19.38.98 19.98 10.61.59 8.16-18.51-.98-19.98ZM395 84c-9.99-2.18-16.45 16.88-6.67 19.67 9.77 2.79 16.13-17.6 6.67-19.67ZM296 100c-10.3-2.18-13.11 10.09-4.75 13.75 8.37 3.66 8.81 6.88 17.75 10.25s12.76-10.83 4.25-13.25c-8.52-2.41-9.42-9.09-17.25-10.75ZM433 100c-7.7-3.01-13.36 6.83-19.77 8.23-6.41 1.4-13.7 11.08-5.9 15.44 7.8 4.36 13.54-6.99 19.92-7.42 6.39-.42 13.75-13.13 5.75-16.25Z"/><path stroke="None" d="M369 102c-35.38-5.75-61.32 31.26-47.92 61.92 13.39 30.67 53.7 34.69 74.67 9.83 20.96-24.87 4.86-66.62-26.75-71.75m-2 14c38.42 6.24 26.3 68.63-12 60-38.3-8.63-25.89-66.15 12-60Z"/><path fill="#F7C547" stroke="None" d="M367 116c-37.89-6.15-50.3 51.37-12 60 38.3 8.63 50.42-53.76 12-60Z"/><path stroke="None" d="M151 125c-35.41-6.35-46.26 47.58-11 55 35.26 7.42 45.42-48.83 11-55m-2 14c16.58 3.86 10.26 31.66-7 27-17.26-4.66-10.53-31.08 7-27Z"/><path fill="#F6C446" stroke="None" d="M149 139c-17.53-4.08-24.26 22.34-7 27s23.58-23.14 7-27Z"/><path stroke="None" d="M306 139c-10.87-3.3-20.73 7.6-10 14s21.73-10.44 10-14ZM427 139c-11.75-3.57-20.66 7.61-10 14s20.99-10.66 10-14ZM315 168c-7.94-2.97-13.65 7.47-20.3 8.7-6.66 1.22-12.8 11.93-4.7 15.3 8.1 3.37 13.98-7.47 20.75-8.25 6.78-.78 11.73-12.95 4.25-15.75ZM414 168c-9.79-2.3-13.33 9.25-5.25 13.25 8.09 3.99 8.86 6.6 17.58 10.42 8.72 3.82 13.18-10.35 4.92-12.92-8.27-2.56-9.7-8.97-17.25-10.75ZM336 189c-10.28-4.01-17.69 14.92-8.67 18.67 9.02 3.74 17.16-15.36 8.67-18.67ZM393 189c-11.69-3.92-13.19 15.15-2.67 18.67 10.52 3.52 12.08-15.51 2.67-18.67Z"/><path fill="#785560" stroke="None" d="M206 200c.44-3.05.51-5.87 0-9 .16 2.95.11 6.04 0 9Z"/><path stroke="None" d="M363 196c-12.94-2.83-12.73 32.26-3.67 35.67 9.05 3.41 9.73-10.05 8.67-15.67-1.06-5.62 3.13-18.22-5-20Z"/><path fill="#644750" stroke="None" d="M113 226c-3.28.13-6.72.18-10 0 3.36.55 6.6.49 10 0Z"/><path fill="#674953" stroke="None" d="M188 226c-3.55.32-7.43.14-11 0 3.67.52 7.22.78 11 0Z"/><path fill="#845E6A" stroke="None" d="M234 236c-8.38 2.25-18.28-1.01-27 0-8.72 1.01-18.14-.43-27 0s-18.09-.14-27 0-18.1.05-27 0c-8.9-.05-18.17.28-27 0-8.83-.28-18.35.7-27 0-8.65-.7-18.76 1.58-27 0-8.24-1.58-19.69 3.51-27 0 7.2 5.12 21.78-.69 31 1 9.22 1.69 21.19-.73 31 0 9.81.73 20.95-.24 31 0s20.9.09 31 0c10.1-.09 21.01.47 31 0 9.99-.47 21.35 1.16 31 0 9.65-1.16 21.75 3.1 30-1Z"/><path fill="#867D67" stroke="None" d="M494 236c-7.23 3.57-18.8-1.61-27 0s-18.37-.71-27 0c-8.63.71-18.17-.29-27 0-8.83.29-18.1-.05-27 0-8.9.05-18.09.14-27 0s-18.14.43-27 0-18.28 1.01-27 0c-8.72-1.01-18.62 2.25-27 0 8.34 4.14 21.25-.23 31 1s20.97-.5 31 0c10.03.5 20.89-.11 31 0s20.96.22 31 0 21.23.69 31 0 21.88 1.62 31 0c9.12-1.62 22.94 4.1 30-1Z"/><path stroke="None" d="M16 261c-12.87.89-14.26 17.12-12.4 27.25 1.87 10.13 2.32 20.19 5.21 29.5 2.89 9.3 5.55 21.21 11.27 34.17 5.71 12.96 12.3 27.04 20.15 38.85 7.85 11.82 14.57 23.06 24.52 33.48 9.95 10.42 18.95 19.54 30.02 28.98 11.07 9.44 22.24 15.97 35.15 23.85 12.91 7.88 25.59 12.4 40.4 18.6 14.82 6.2 29.65 6.77 46.46 11.54C233.59 512 253.04 506.18 250 485c-3.04-21.18 1.58-39.06 0-59-1.58-19.94 1.18-40.11 0-59s1.57-41.67 0-59 6.09-36.19-7.23-43.43c-13.32-7.24-33.82-1.26-51.77-2.57-17.95-1.31-40.29.15-59 0s-40.16-.92-59 0c-18.84.92-39.08-2.24-57-1m218 15c1.9.94 1.02.03 2 2 4.1 8.25-.16 20.35 1 30 1.16 9.65-.47 21.01 0 31 .47 9.99-.09 20.9 0 31 .09 10.1.24 20.95 0 31s.73 21.19 0 31c-.73 9.81 1.69 21.78 0 31-1.69 9.22 4.12 23.8-1 31-3.89 5.47-18.7-1.15-25.67-1.33-6.97-.18-18.02-4.83-25.4-6.6-7.39-1.76-16.3-5.82-23.61-8.39-7.31-2.58-13.75-6.86-20.57-10.43-6.81-3.58-13.8-7.46-20-12-6.19-4.55-12.66-8.54-18.5-13.5-5.83-4.97-11.03-10.04-16.5-15.5-5.47-5.46-10.14-10.12-15-16-4.86-5.89-9.25-12.06-13.67-18.33-4.42-6.27-8.33-13.25-12-20-3.68-6.74-7.64-13.39-10.39-20.61-2.74-7.23-6.89-15.98-8.62-23.38-1.73-7.4-6.29-18.56-6.4-25.6-.1-7.04-7.45-22.22-1.67-26.33 7.12-5.07 20.85.61 30-1 9.15-1.61 21.22.68 31 0 9.78-.68 20.96.22 31 0s20.89-.11 31 0 20.97-.5 31 0c10.03.5 21.25-1.23 31 0s22.66-3.14 31 1ZM276 261c-17.95 1.03-13.93 22.59-14 40-.07 17.41.08 43.38 0 63-.08 19.62.15 42.09 0 63-.15 20.91.3 42.03 0 64s26.54 19.27 41.98 14.98c15.43-4.3 34.27-7.55 48.79-14.21 14.52-6.66 28.9-13.61 41.98-22.02 13.09-8.4 23.69-17.39 35-28 11.31-10.61 20.8-21.07 30-33 9.19-11.93 16.95-25.85 23.95-39.05 6.99-13.21 10.47-22.08 13.73-32.93 3.26-10.85 7.06-18.62 7.86-30.47.8-11.86 8.4-20.54 2.9-34.05-5.5-13.5-25.43-10.78-44.19-10.25-18.76.53-43.14-.65-63 0s-42.81-1.2-63 0c-20.19 1.2-42.6-2.12-62-1m218 15c6.23 4.5-1.77 20.62-1.98 28.02-.2 7.41-5.06 19.23-6.95 27.05-1.88 7.82-6.58 16.62-9.84 24.16-3.26 7.54-6.84 15.86-11.15 22.85-4.32 6.99-8.9 13.71-13.83 20.17-4.94 6.46-9.32 13.12-15.02 18.98-5.7 5.87-11.47 12-17.48 17.52s-12.27 10.45-18.83 15.17c-6.56 4.72-13.05 9.94-20.17 13.83-7.11 3.89-14.91 8.41-22.44 11.56-7.53 3.14-16.66 7.58-24.38 9.62-7.73 2.04-19.58 6.82-26.95 7.05-7.37.22-24.53 8.19-28.98 2.02-5.1-7.06.62-20.88-1-30-1.62-9.12.69-21.23 0-31s.22-20.96 0-31-.11-20.89 0-31-.5-20.97 0-31c.5-10.03-1.23-21.25 0-31s-3.14-22.66 1-31c.94-1.9.03-1.02 2-2 8.25-4.1 20.35.16 30-1 9.65-1.16 21.01.47 31 0 9.99-.47 20.91.08 31 0s20.96-.24 31 0 21.2-.73 31 0 21.8-1.71 31 0 23.86-4.15 31 1Z"/><path fill="#50566D" stroke="None" d="M18 276c7.31-3.51 18.76 1.58 27 0 8.24-1.58 18.35.7 27 0 8.65-.7 18.17.28 27 0 8.83-.28 18.1.05 27 0 8.9-.05 18.09-.14 27 0s18.14-.43 27 0 18.28-1.01 27 0c8.72 1.01 18.62-2.25 27 0-8.34-4.14-21.25.23-31-1s-20.97.5-31 0c-10.03-.5-20.89.11-31 0s-20.96-.22-31 0-21.22-.68-31 0c-9.78.68-21.85-1.61-31 0-9.15 1.61-22.88-4.07-30 1Z"/><path fill="#745C21" stroke="None" d="M278 276c8.38-2.26 18.28 1.01 27 0 8.72-1.01 18.14.43 27 0s18.09.14 27 0 18.1-.05 27 0c8.9.05 18.17-.29 27 0 8.83.29 18.37-.71 27 0 8.63.71 18.8-1.61 27 0s19.77-3.57 27 0c-7.14-5.15-21.8.71-31-1s-21.2.73-31 0-20.96.24-31 0-20.91-.08-31 0-21.01-.47-31 0c-9.99.47-21.35-1.16-31 0-9.65 1.16-21.75-3.1-30 1Z"/><path fill="#ACBAE9" stroke="None" d="M236 494c3.51-7.31-1.58-18.76 0-27 1.58-8.24-.7-18.35 0-27 .7-8.65-.28-18.17 0-27 .28-8.83-.05-18.1 0-27 .05-8.9.14-18.09 0-27s.43-18.14 0-27 1.01-18.28 0-27c-1.01-8.72 2.25-18.62 0-27-.98-1.97-.1-1.06-2-2-8.38-2.25-18.28 1.01-27 0-8.72-1.01-18.14.43-27 0s-18.09.14-27 0-18.1-.05-27 0c-8.9.05-18.17-.28-27 0-8.83.28-18.35-.7-27 0-8.65.7-18.76-1.58-27 0-8.24 1.58-19.69-3.51-27 0-5.78 4.11 1.57 19.29 1.67 26.33.11 7.04 4.67 18.2 6.4 25.6 1.73 7.4 5.88 16.15 8.62 23.38 2.75 7.22 6.71 13.87 10.39 20.61 3.67 6.75 7.58 13.73 12 20s8.81 12.44 13.67 18.33c4.86 5.88 9.53 10.54 15 16 5.47 5.46 10.67 10.53 16.5 15.5 5.84 4.96 12.31 8.95 18.5 13.5 6.2 4.54 13.19 8.42 20 12 6.82 3.57 13.26 7.85 20.57 10.43 7.31 2.57 16.22 6.63 23.61 8.39 7.38 1.77 18.43 6.42 25.4 6.6 6.97.18 21.78 6.8 25.67 1.33m-51-144c-1.32 2.67.07 8.95 0 12-.07 3.05-1.13 9.19 0 12 1.92 3.2 7.14 3.86 10 6 5.28-2.86 9.91-11.38 17.07-8.07 7.16 3.3 3.15 14.15-4.07 15.07 3.95 3.62 13.26 6.89 9.07 14.07-4.18 7.19-11.24 1.87-16.07-1.07 6.37 12.73-17.95 16.71-14.99 4.99 2.96-11.72-3.15-20.63-13.7-15.68-10.56 4.94-17.46 8.18-15.31 20.69 4.87 3.48 14.76 3.01 15.92 11.08 1.16 8.06-11.5 9.59-15.92 3.92.47 5.36.57 15-7.03 14.97-7.59-.02-7.61-9.48-6.97-14.97-4.7 4.79-16.86 4.29-15.99-4.01.86-8.29 10.73-7.43 15.99-10.99v-12c-10.18-4.2-20.4-16.46-31-6-.14 5.93 4.52 15.91-2.08 19.92-6.61 4.01-13.36-5.17-10.92-11.92-4.96 2.29-11.15 8.18-15.75 1.75S86.4 389.65 92 388c-6.04-2.01-12.01-11.74-4.92-15.92 7.09-4.17 12.51 5.34 17.92 7.92 3.64-1.16 6.2-4.45 10-5-2.18-9.92 4.67-20.4-4.08-26.92-8.74-6.53-10.17 4.35-19.93 4.91-9.76.57-7.09-13.9.01-16.99-18.02-3.39-3.1-25.13 8-11-6.52-10.07 12.6-17.1 13.92-8.92 1.31 8.19-1.44 21.76 9.16 21.84 10.59.09 11.04-10.44 20.92-10.92 4.32-14.28-6.49-11.84-14.23-18.77s7.89-17.54 14.23-9.23c-.76-5.75-.39-14.31 7.01-13.99 7.4.32 7.31 8.39 6.99 13.99 6.25-8.33 21.5 1.92 13.75 8.75-7.76 6.82-17.72 5.37-13.75 19.25 4.45 3.09 10.9 4.2 15.08 7.92 4.17 3.73 12.36 2.64 14.84-3 2.48-5.65-5.14-15.1 2.83-19.17 7.97-4.06 11.19 5.16 11.25 11.25 3.37-5.03 20.03-4.75 16.99 4.01-3.03 8.75-11.96 6.83-3.24 14.24 8.72 7.4-7.81 15.49-11.5 8.5-3.7-6.99-13.6-5.3-18.25-.75Z"/><path fill="#F8C647" stroke="None" d="M276 278c-2.25 8.38 1.01 18.28 0 27-1.01 8.72.43 18.14 0 27s.14 18.09 0 27-.05 18.1 0 27c.05 8.9-.29 18.17 0 27 .29 8.83-.71 18.37 0 27 .71 8.63-1.61 18.8 0 27s-3.57 19.77 0 27c4.45 6.17 21.61-1.8 28.98-2.02 7.37-.23 19.22-5.01 26.95-7.05 7.72-2.04 16.85-6.48 24.38-9.62 7.53-3.15 15.33-7.67 22.44-11.56 7.12-3.89 13.61-9.11 20.17-13.83 6.56-4.72 12.82-9.65 18.83-15.17 6.01-5.52 11.78-11.65 17.48-17.52 5.7-5.86 10.08-12.52 15.02-18.98 4.93-6.46 9.51-13.18 13.83-20.17 4.31-6.99 7.89-15.31 11.15-22.85 3.26-7.54 7.96-16.34 9.84-24.16 1.89-7.82 6.75-19.64 6.95-27.05.21-7.4 8.21-23.52 1.98-28.02-7.23-3.57-18.8 1.61-27 0s-18.37.71-27 0c-8.63-.71-18.17.29-27 0-8.83-.29-18.1.05-27 0-8.9-.05-18.09-.14-27 0s-18.14-.43-27 0-18.28-1.01-27 0c-8.72 1.01-18.62-2.26-27 0-1.97.98-1.06.1-2 2m131 69c15.77-.76 34.5 9.05 29.22 25.22-5.28 16.17-6.74 27.26-20.97 37.03-14.22 9.78-30.63 11.67-47.25 7.75-1.74 6.48 5.06 28.61-7.03 27.97-12.08-.63-5.09-21.86-6.97-28.97-15.55 5.94-31.71 2.85-45.75-6.25-14.03-9.11-16.43-19.39-22.18-35.82-5.75-16.44 13.24-29.05 29.93-26.93-1.46-13.05 5.41-32.92 14.3-41.7 8.89-8.77 17.83-24.85 30.71-25.29 12.87-.44 21.79 16.65 30.76 25.22 8.97 8.57 16.09 28.78 15.23 41.77Z"/><path fill="#555C74" stroke="None" d="M236 494c5.12-7.2-.69-21.78 1-31 1.69-9.22-.73-21.19 0-31 .73-9.81-.24-20.95 0-31s.09-20.9 0-31c-.09-10.1.47-21.01 0-31-.47-9.99 1.16-21.35 0-31-1.16-9.65 3.1-21.75-1-30 2.25 8.38-1.01 18.28 0 27 1.01 8.72-.43 18.14 0 27s-.14 18.09 0 27 .05 18.1 0 27c-.05 8.9.28 18.17 0 27-.28 8.83.7 18.35 0 27-.7 8.65 1.58 18.76 0 27-1.58 8.24 3.51 19.69 0 27Z"/><path fill="#7C6223" stroke="None" d="M276 494c-3.57-7.23 1.61-18.8 0-27s.71-18.37 0-27c-.71-8.63.29-18.17 0-27-.29-8.83.05-18.1 0-27-.05-8.9-.14-18.09 0-27s-.43-18.14 0-27-1.01-18.28 0-27c1.01-8.72-2.25-18.62 0-27-4.14 8.34.23 21.25-1 31s.5 20.97 0 31c-.5 10.03.11 20.89 0 31s-.22 20.96 0 31-.69 21.23 0 31-1.62 21.88 0 31c1.62 9.12-4.1 22.94 1 30Z"/><path stroke="None" d="M407 347c.86-12.99-6.26-33.2-15.23-41.77s-17.89-25.66-30.76-25.22c-12.88.44-21.82 16.52-30.71 25.29-8.89 8.78-15.76 28.65-14.3 41.7-16.69-2.12-35.68 10.49-29.93 26.93 5.75 16.43 8.15 26.71 22.18 35.82 14.04 9.1 30.2 12.19 45.75 6.25 1.88 7.11-5.11 28.34 6.97 28.97 12.09.64 5.29-21.49 7.03-27.97 16.62 3.92 33.03 2.03 47.25-7.75 14.23-9.77 15.69-20.86 20.97-37.03 5.28-16.17-13.45-25.98-29.22-25.22m16 18c-1.33 10.05-2.89 19.79-10.25 27.75-7.36 7.96-14.49 10.31-25.77 12.23-11.29 1.91-22.63-5.22-18.98-18.98 3.65-13.76-3.41-23.49 0-38 3.41-14.51-16.91-14.48-14 0s-3.64 24.14 0 38-7.48 21.15-19 19c-11.52-2.15-18.41-4.19-25.75-12.25-7.34-8.06-7.67-18.06-10.25-27.75 7.89-4.83 28.19-.97 29.97-13.03 1.79-12.05 2.22-24.77 9.8-34.2 7.58-9.43 12.48-15.1 21.23-22.77 9.77 5.71 15.09 11.96 22.75 21.25S392.53 337.12 393 350c.47 12.88 21.72 10.92 30 15ZM185 374c-2.22-3.7-2.53-20.49 0-24 4.65-4.55 14.55-6.24 18.25.75 3.69 6.99 20.22-1.1 11.5-8.5-8.72-7.41.21-5.49 3.24-14.24 3.04-8.76-13.62-9.04-16.99-4.01-.06-6.09-3.28-15.31-11.25-11.25-7.97 4.07-.35 13.52-2.83 19.17-2.48 5.64-10.67 6.73-14.84 3-4.18-3.72-10.63-4.83-15.08-7.92-3.97-13.88 5.99-12.43 13.75-19.25 7.75-6.83-7.5-17.08-13.75-8.75.32-5.6.41-13.67-6.99-13.99-7.4-.32-7.77 8.24-7.01 13.99-6.34-8.31-21.97 2.3-14.23 9.23 7.74 6.93 18.55 4.49 14.23 18.77-9.88.48-10.33 11.01-20.92 10.92-10.6-.08-7.85-13.65-9.16-21.84-1.32-8.18-20.44-1.15-13.92 8.92-11.1-14.13-26.02 7.61-8 11-7.1 3.09-9.77 17.56-.01 16.99 9.76-.56 11.19-11.44 19.93-4.91 8.75 6.52 1.9 17 4.08 26.92-3.8.55-6.36 3.84-10 5-5.41-2.58-10.83-12.09-17.92-7.92-7.09 4.18-1.12 13.91 4.92 15.92-5.6 1.65-13.35 7.32-8.75 13.75s10.79.54 15.75-1.75c-2.44 6.75 4.31 15.93 10.92 11.92 6.6-4.01 1.94-13.99 2.08-19.92 10.6-10.46 20.82 1.8 31 6v12c-5.26 3.56-15.13 2.7-15.99 10.99-.87 8.3 11.29 8.8 15.99 4.01-.64 5.49-.62 14.95 6.97 14.97 7.6.03 7.5-9.61 7.03-14.97 4.42 5.67 17.08 4.14 15.92-3.92-1.16-8.07-11.05-7.6-15.92-11.08-2.15-12.51 4.75-15.75 15.31-20.69 10.55-4.95 16.66 3.96 13.7 15.68-2.96 11.72 21.36 7.74 14.99-4.99 4.83 2.94 11.89 8.26 16.07 1.07 4.19-7.18-5.12-10.45-9.07-14.07 7.22-.92 11.23-11.77 4.07-15.07-7.16-3.31-11.79 5.21-17.07 8.07-2.86-2.14-8.08-2.8-10-6m-15-23c2.3 3.95 2.32 19.13 0 23-2.88 4.81-12.74 8.27-18.08 10.92-5.34 2.65-13.04-6.04-19.15-8.69-6.11-2.65-3.25-19.79-3.77-26.23 7.23-.12 13.91-11.58 21.03-10.97 7.11.6 14.02 9.3 19.97 11.97Z"/><path fill="#B18004" stroke="None" d="M423 365c-8.28-4.08-29.53-2.12-30-15-.47-12.88-2.59-24.46-10.25-33.75S369.77 300.71 360 295c-8.75 7.67-13.65 13.34-21.23 22.77s-8.01 22.15-9.8 34.2c-1.78 12.06-22.08 8.2-29.97 13.03 2.58 9.69 2.91 19.69 10.25 27.75 7.34 8.06 14.23 10.1 25.75 12.25 11.52 2.15 22.64-5.14 19-19-3.64-13.86 2.91-23.52 0-38s17.41-14.51 14 0 3.65 24.24 0 38c-3.65 13.76 7.69 20.89 18.98 18.98 11.28-1.92 18.41-4.27 25.77-12.23 7.36-7.96 8.92-17.7 10.25-27.75Z"/><path fill="#E8EBFA" stroke="None" d="M170 374c1.11-2.76.11-7.9 0-11-.11-3.1 1.13-9.08 0-12-5.95-2.67-12.86-11.37-19.97-11.97-7.12-.61-13.8 10.85-21.03 10.97.52 6.44-2.34 23.58 3.77 26.23 6.11 2.65 13.81 11.34 19.15 8.69 5.34-2.65 15.2-6.11 18.08-10.92Z"/><path fill="#616985" stroke="None" d="M185 374c-1.13-2.81-.07-8.95 0-12 .07-3.05-1.32-9.33 0-12-2.53 3.51-2.22 20.3 0 24Z"/><path fill="#64666D" stroke="None" d="M170 374c2.32-3.87 2.3-19.05 0-23 1.13 2.92-.11 8.9 0 12 .11 3.1 1.11 8.24 0 11Z"/></svg>