<svg xmlns="http://www.w3.org/2000/svg" width="512" height="512"><path fill="none" fill-opacity="0" stroke="none" stroke-opacity="0" stroke-width=".3" d="M0 310c2.22-52.42 48.07-101.95 102-103 .87-12.04 2.91-29.16 6.19-38.25 3.29-9.09 6.36-14.37 10.39-21.52 4.02-7.15 9.26-19.8 20.42-15.23-.11-5.48 12.2-10.37 15-14-5.31-10.61 12.2-15.99 17.25-18.8 5.05-2.81 15.71-6.46 23.5-8.46 7.78-1.99 22.67-3.42 33.25-2.74 10.58.68 18.53 1.36 26.75 3.4 8.22 2.03 15.64 6.21 22.02 9.18 6.38 2.96 15.91 8.64 24.46 16.19 8.55 7.55 16.06 16 22.52 25.48 6.47 9.47 12.15 22.56 15.25 33.75 54.33-11.2 107.71 35.94 107 90 35.66 5.91 64.16 39.68 66 75V0H0v310Z"/><path fill="none" fill-opacity="0" stroke="#000" stroke-width=".3" d="M154 118c4.45 8.89 13.76-.35 19.7-3.3 5.93-2.96 15.5-7.01 22.3-8.7 5.84-1.45 10.78-2.6 17.01-2.99 6.23-.39 13.43-.48 19.99-.01 6.56.47 10.04.88 17.01 2.99 6.96 2.11 6.92 1.95 15.22 5.78 8.3 3.84 17.81 8.66 25 15 7.19 6.34 13.99 13.86 19.54 21.46 5.55 7.6 10.79 18.39 14.01 26.99 3.21 8.6-.06 9.63 5.47 14.53 5.53 4.9 10.92-.48 17.42-.08 6.5.4 12.15-1.76 19.34.32 7.18 2.08 6.96 1.14 15.68 4.32 8.73 3.17 17.46 8.74 24.56 15.44 7.09 6.7 13.47 14.99 17.52 23.48 4.06 8.49 1.48 6.53 5.16 14.84 3.67 8.32-2.17 29.63 9.1 31.9 11.26 2.28 21.59 3.98 30.2 10.8s13.86 11.64 19.52 20.48c5.67 8.83 8.92 21.44 9.25 31.75.33 10.31 1.73 10.14-1.99 18.01-3.72 7.87 2.03 7.73 2.99 13.99 3.43-3.08 10.76-2.27 10.78-9.22.02-6.95 2.88-11.53 3.22-17.78v-7c-1.84-35.32-30.34-69.09-66-75 .71-54.06-52.67-101.2-107-90-3.1-11.19-8.78-24.28-15.25-33.75-6.46-9.48-13.97-17.93-22.52-25.48-8.55-7.55-18.08-13.23-24.46-16.19-6.38-2.97-13.8-7.15-22.02-9.18-8.22-2.04-16.17-2.72-26.75-3.4-10.58-.68-25.47.75-33.25 2.74-7.79 2-18.45 5.65-23.5 8.46-5.05 2.81-22.56 8.19-17.25 18.8Z"/><path fill="none" fill-opacity="0" stroke="#C3E0FD" stroke-width=".3" d="M196 106c22.83-.29 47.04 15.02 64.75 29.25 17.72 14.22 29.2 38.69 34.25 59.75 53.88-15.03 110.94 33.51 105 89 60.04 1.29 88.13 84.49 44 124 6.73-1.23 17.83-5.48 23.23-8.77 5.4-3.29 15.07-15.75 20.77-8.23 2.29-4.07 10.85-10.5 10-16-.96-6.26-6.71-6.12-2.99-13.99 3.72-7.87 2.32-7.7 1.99-18.01-.33-10.31-3.58-22.92-9.25-31.75-5.66-8.84-10.91-13.66-19.52-20.48s-18.94-8.52-30.2-10.8c-11.27-2.27-5.43-23.58-9.1-31.9-3.68-8.31-1.1-6.35-5.16-14.84-4.05-8.49-10.43-16.78-17.52-23.48-7.1-6.7-15.83-12.27-24.56-15.44-8.72-3.18-8.5-2.24-15.68-4.32-7.19-2.08-12.84.08-19.34-.32s-11.89 4.98-17.42.08c-5.53-4.9-2.26-5.93-5.47-14.53-3.22-8.6-8.46-19.39-14.01-26.99-5.55-7.6-12.35-15.12-19.54-21.46-7.19-6.34-16.7-11.16-25-15-8.3-3.83-8.26-3.67-15.22-5.78-6.97-2.11-10.45-2.52-17.01-2.99-6.56-.47-13.76-.38-19.99.01-6.23.39-11.17 1.54-17.01 2.99Z"/><path fill="none" fill-opacity="0" stroke="#D8ECFE" stroke-width=".3" d="M154 118c-2.8 3.63-15.11 8.52-15 14 8.1 6.8-5.12 18.23-9.3 25.7-4.19 7.46-8.25 21.71-10.7 30.3-2.44 8.6 2.17 31.07-9.03 32.97-11.19 1.91-24.77 1.17-34.66 6.34-9.9 5.16-18.52 7.89-26.54 15.46-8.02 7.57-13.18 13.03-19.07 21.93-5.89 8.89-9.41 18.4-12.03 28.97C15.06 304.24 13.63 321.1 16 332c2.37 10.9 6.1 20.51 11.3 29.7 5.2 9.18 10.5 16.4 18.45 23.55 7.95 7.14 15.14 11.47 24.94 16.06C80.5 405.89 93.63 409 105 409c55.09 0 109.88.8 165 0 55.12-.8 110.89 2.1 166 0 2.99-.11 5.21-.49 8-1 44.13-39.51 16.04-122.71-44-124 5.94-55.49-51.12-104.03-105-89-5.05-21.06-16.53-45.53-34.25-59.75-17.71-14.23-41.92-29.54-64.75-29.25-6.8 1.69-16.37 5.74-22.3 8.7-5.94 2.95-15.25 12.19-19.7 3.3Z"/><path fill="none" fill-opacity="0" stroke="#000" stroke-width=".3" d="M0 310v16c3.01 9.81 4.59 22.45 8.98 32.02 4.38 9.58 9.08 17.23 15.77 25.23 6.69 7.99 12.62 14.7 21.48 20.52 8.86 5.82 16.08 10.47 26.85 14.15 10.76 3.69 23.32 6.04 35.92 6.08 12.6.04 27.78-.02 41 0 13.22.02 27.45-.01 41 0s28.34 0 42 0 27.33.01 41 0c13.67-.01 28.44.03 42 0 13.56-.03 27.76.07 41 0 13.25-.07 28.35.15 41 0 12.65-.15 30.66.33 42 0s22.84-6.53 30.75-10.25c7.91-3.73 23.95-13.92 17.25-22.75-5.7-7.52-15.37 4.94-20.77 8.23s-16.5 7.54-23.23 8.77c-2.79.51-5.01.89-8 1-35.35 5.05-73.59-.24-110 1s-74.53.28-111 0-74.48 2.44-110-1c-11.37 0-24.5-3.11-34.31-7.69-9.8-4.59-16.99-8.92-24.94-16.06-7.95-7.15-13.25-14.37-18.45-23.55-5.2-9.19-8.93-18.8-11.3-29.7-2.37-10.9-.94-27.76 1.67-38.33 2.62-10.57 6.14-20.08 12.03-28.97 5.89-8.9 11.05-14.36 19.07-21.93s16.64-10.3 26.54-15.46c9.89-5.17 23.47-4.43 34.66-6.34 11.2-1.9 6.59-24.37 9.03-32.97 2.45-8.59 6.51-22.84 10.7-30.3 4.18-7.47 17.4-18.9 9.3-25.7-11.16-4.57-16.4 8.08-20.42 15.23-4.03 7.15-7.1 12.43-10.39 21.52-3.28 9.09-5.32 26.21-6.19 38.25-53.93 1.05-99.78 50.58-102 103Z"/><path fill="none" fill-opacity="0" stroke="none" stroke-opacity="0" stroke-width=".3" d="M0 512h512V348c-.34 6.25-3.2 10.83-3.22 17.78-.02 6.95-7.35 6.14-10.78 9.22.85 5.5-7.71 11.93-10 16 6.7 8.83-9.34 19.02-17.25 22.75-7.91 3.72-19.41 9.92-30.75 10.25-11.34.33-29.35-.15-42 0-12.65.15-27.75-.07-41 0-13.24.07-27.44-.03-41 0-13.56.03-28.33-.01-42 0-13.67.01-27.34 0-41 0s-28.45.01-42 0-27.78.02-41 0c-13.22-.02-28.4.04-41 0-12.6-.04-25.16-2.39-35.92-6.08-10.77-3.68-17.99-8.33-26.85-14.15-8.86-5.82-14.79-12.53-21.48-20.52-6.69-8-11.39-15.65-15.77-25.23C4.59 348.45 3.01 335.81 0 326v186Z"/><path fill="none" fill-opacity="0" stroke="#555D65" stroke-width=".3" d="M436 409c-55.11 2.1-110.88-.8-166 0-55.12.8-109.91 0-165 0 35.52 3.44 73.53.72 110 1s74.59 1.24 111 0 74.65 4.05 110-1Z"/><path fill="none" fill-opacity="0" stroke="None" d="M0 310c2.22-52.42 48.07-101.95 102-103 .87-12.04 2.91-29.16 6.19-38.25 3.29-9.09 6.36-14.37 10.39-21.52 4.02-7.15 9.26-19.8 20.42-15.23-.11-5.48 12.2-10.37 15-14-5.31-10.61 12.2-15.99 17.25-18.8 5.05-2.81 15.71-6.46 23.5-8.46 7.78-1.99 22.67-3.42 33.25-2.74 10.58.68 18.53 1.36 26.75 3.4 8.22 2.03 15.64 6.21 22.02 9.18 6.38 2.96 15.91 8.64 24.46 16.19 8.55 7.55 16.06 16 22.52 25.48 6.47 9.47 12.15 22.56 15.25 33.75 54.33-11.2 107.71 35.94 107 90 35.66 5.91 64.16 39.68 66 75V0H0v310Z"/><path stroke="None" d="M154 118c4.45 8.89 13.76-.35 19.7-3.3 5.93-2.96 15.5-7.01 22.3-8.7 5.84-1.45 10.78-2.6 17.01-2.99 6.23-.39 13.43-.48 19.99-.01 6.56.47 10.04.88 17.01 2.99 6.96 2.11 6.92 1.95 15.22 5.78 8.3 3.84 17.81 8.66 25 15 7.19 6.34 13.99 13.86 19.54 21.46 5.55 7.6 10.79 18.39 14.01 26.99 3.21 8.6-.06 9.63 5.47 14.53 5.53 4.9 10.92-.48 17.42-.08 6.5.4 12.15-1.76 19.34.32 7.18 2.08 6.96 1.14 15.68 4.32 8.73 3.17 17.46 8.74 24.56 15.44 7.09 6.7 13.47 14.99 17.52 23.48 4.06 8.49 1.48 6.53 5.16 14.84 3.67 8.32-2.17 29.63 9.1 31.9 11.26 2.28 21.59 3.98 30.2 10.8s13.86 11.64 19.52 20.48c5.67 8.83 8.92 21.44 9.25 31.75.33 10.31 1.73 10.14-1.99 18.01-3.72 7.87 2.03 7.73 2.99 13.99 3.43-3.08 10.76-2.27 10.78-9.22.02-6.95 2.88-11.53 3.22-17.78v-7c-1.84-35.32-30.34-69.09-66-75 .71-54.06-52.67-101.2-107-90-3.1-11.19-8.78-24.28-15.25-33.75-6.46-9.48-13.97-17.93-22.52-25.48-8.55-7.55-18.08-13.23-24.46-16.19-6.38-2.97-13.8-7.15-22.02-9.18-8.22-2.04-16.17-2.72-26.75-3.4-10.58-.68-25.47.75-33.25 2.74-7.79 2-18.45 5.65-23.5 8.46-5.05 2.81-22.56 8.19-17.25 18.8Z"/><path fill="#C3E0FD" stroke="None" d="M196 106c22.83-.29 47.04 15.02 64.75 29.25 17.72 14.22 29.2 38.69 34.25 59.75 53.88-15.03 110.94 33.51 105 89 60.04 1.29 88.13 84.49 44 124 6.73-1.23 17.83-5.48 23.23-8.77 5.4-3.29 15.07-15.75 20.77-8.23 2.29-4.07 10.85-10.5 10-16-.96-6.26-6.71-6.12-2.99-13.99 3.72-7.87 2.32-7.7 1.99-18.01-.33-10.31-3.58-22.92-9.25-31.75-5.66-8.84-10.91-13.66-19.52-20.48s-18.94-8.52-30.2-10.8c-11.27-2.27-5.43-23.58-9.1-31.9-3.68-8.31-1.1-6.35-5.16-14.84-4.05-8.49-10.43-16.78-17.52-23.48-7.1-6.7-15.83-12.27-24.56-15.44-8.72-3.18-8.5-2.24-15.68-4.32-7.19-2.08-12.84.08-19.34-.32s-11.89 4.98-17.42.08c-5.53-4.9-2.26-5.93-5.47-14.53-3.22-8.6-8.46-19.39-14.01-26.99-5.55-7.6-12.35-15.12-19.54-21.46-7.19-6.34-16.7-11.16-25-15-8.3-3.83-8.26-3.67-15.22-5.78-6.97-2.11-10.45-2.52-17.01-2.99-6.56-.47-13.76-.38-19.99.01-6.23.39-11.17 1.54-17.01 2.99Z"/><path fill="#D8ECFE" stroke="None" d="M154 118c-2.8 3.63-15.11 8.52-15 14 8.1 6.8-5.12 18.23-9.3 25.7-4.19 7.46-8.25 21.71-10.7 30.3-2.44 8.6 2.17 31.07-9.03 32.97-11.19 1.91-24.77 1.17-34.66 6.34-9.9 5.16-18.52 7.89-26.54 15.46-8.02 7.57-13.18 13.03-19.07 21.93-5.89 8.89-9.41 18.4-12.03 28.97C15.06 304.24 13.63 321.1 16 332c2.37 10.9 6.1 20.51 11.3 29.7 5.2 9.18 10.5 16.4 18.45 23.55 7.95 7.14 15.14 11.47 24.94 16.06C80.5 405.89 93.63 409 105 409c55.09 0 109.88.8 165 0 55.12-.8 110.89 2.1 166 0 2.99-.11 5.21-.49 8-1 44.13-39.51 16.04-122.71-44-124 5.94-55.49-51.12-104.03-105-89-5.05-21.06-16.53-45.53-34.25-59.75-17.71-14.23-41.92-29.54-64.75-29.25-6.8 1.69-16.37 5.74-22.3 8.7-5.94 2.95-15.25 12.19-19.7 3.3Z"/><path stroke="None" d="M0 310v16c3.01 9.81 4.59 22.45 8.98 32.02 4.38 9.58 9.08 17.23 15.77 25.23 6.69 7.99 12.62 14.7 21.48 20.52 8.86 5.82 16.08 10.47 26.85 14.15 10.76 3.69 23.32 6.04 35.92 6.08 12.6.04 27.78-.02 41 0 13.22.02 27.45-.01 41 0s28.34 0 42 0 27.33.01 41 0c13.67-.01 28.44.03 42 0 13.56-.03 27.76.07 41 0 13.25-.07 28.35.15 41 0 12.65-.15 30.66.33 42 0s22.84-6.53 30.75-10.25c7.91-3.73 23.95-13.92 17.25-22.75-5.7-7.52-15.37 4.94-20.77 8.23s-16.5 7.54-23.23 8.77c-2.79.51-5.01.89-8 1-35.35 5.05-73.59-.24-110 1s-74.53.28-111 0-74.48 2.44-110-1c-11.37 0-24.5-3.11-34.31-7.69-9.8-4.59-16.99-8.92-24.94-16.06-7.95-7.15-13.25-14.37-18.45-23.55-5.2-9.19-8.93-18.8-11.3-29.7-2.37-10.9-.94-27.76 1.67-38.33 2.62-10.57 6.14-20.08 12.03-28.97 5.89-8.9 11.05-14.36 19.07-21.93s16.64-10.3 26.54-15.46c9.89-5.17 23.47-4.43 34.66-6.34 11.2-1.9 6.59-24.37 9.03-32.97 2.45-8.59 6.51-22.84 10.7-30.3 4.18-7.47 17.4-18.9 9.3-25.7-11.16-4.57-16.4 8.08-20.42 15.23-4.03 7.15-7.1 12.43-10.39 21.52-3.28 9.09-5.32 26.21-6.19 38.25-53.93 1.05-99.78 50.58-102 103Z"/><path fill="none" fill-opacity="0" stroke="None" d="M0 512h512V348c-.34 6.25-3.2 10.83-3.22 17.78-.02 6.95-7.35 6.14-10.78 9.22.85 5.5-7.71 11.93-10 16 6.7 8.83-9.34 19.02-17.25 22.75-7.91 3.72-19.41 9.92-30.75 10.25-11.34.33-29.35-.15-42 0-12.65.15-27.75-.07-41 0-13.24.07-27.44-.03-41 0-13.56.03-28.33-.01-42 0-13.67.01-27.34 0-41 0s-28.45.01-42 0-27.78.02-41 0c-13.22-.02-28.4.04-41 0-12.6-.04-25.16-2.39-35.92-6.08-10.77-3.68-17.99-8.33-26.85-14.15-8.86-5.82-14.79-12.53-21.48-20.52-6.69-8-11.39-15.65-15.77-25.23C4.59 348.45 3.01 335.81 0 326v186Z"/><path fill="#555D65" stroke="None" d="M436 409c-55.11 2.1-110.88-.8-166 0-55.12.8-109.91 0-165 0 35.52 3.44 73.53.72 110 1s74.59 1.24 111 0 74.65 4.05 110-1Z"/></svg>