<svg xmlns="http://www.w3.org/2000/svg" width="512" height="512"><path fill="none" fill-opacity="0" stroke="none" stroke-opacity="0" stroke-width=".3" d="M0 25c4.95-4.16 10.62-7.14 17-8 .83-6.33 3.89-12.09 8-17H0v25Z"/><path fill="none" fill-opacity="0" stroke="#FFCE71" stroke-opacity=".94" stroke-width=".3" d="M0 25v9c4.89 4.28 10.89 6.46 17 8 2.64 7.07 2.46 15.67 12.01 16.99 9.54 1.32 9.04-11.96 13.3-16.68 4.25-4.73 17.13-2.86 16.68-12.32C58.54 20.53 49.38 19.08 42 17c-1.51-6.06-3.77-12.15-8-17h-9c-4.11 4.91-7.17 10.67-8 17-6.38.86-12.05 3.84-17 8Z"/><path fill="none" fill-opacity="0" stroke="none" stroke-opacity="0" stroke-width=".3" d="M0 34v199C8.11 113.95 114.02 8.09 233 0H34c4.23 4.85 6.49 10.94 8 17 7.38 2.08 16.54 3.53 16.99 12.99.45 9.46-12.43 7.59-16.68 12.32-4.26 4.72-3.76 18-13.3 16.68C19.46 57.67 19.64 49.07 17 42c-6.11-1.54-12.11-3.72-17-8Z"/><path fill="none" fill-opacity="0" stroke="#666E71" stroke-opacity=".99" stroke-width=".3" d="M0 233v46c8.12 119.06 114.02 224.87 233 233h30c1.96-1.52 7.11-1.72 9 0h7c8.89-1.25 19.28-3.35 28-5-23.21-3.25-48.64-16.89-69.69-27.3-21.06-10.42-38.68-25.75-55.31-42.7 32.49-15.43 43.76-57.76 24.75-87.75-19.02-29.98-61.12-38.08-89.75-17.25-22.59-74.29-10.02-158.8 34-222-2.11 13.03 2.38 29.53 15.23 36.77 12.85 7.24 30.14 4.68 39.52-7.02 9.38-11.7 8.48-29.94-1.5-41-9.99-11.06-27.86-12.1-40.25-4.75 36.81-46.11 88.61-75.29 143-89-8.73-1.87-19.18-3.63-28-5h-46C114.02 8.09 8.11 113.95 0 233m67 8c19.19 4.75 8.01 37.74-10.67 29.67S48.12 236.32 67 241m51 92c11.24 39.57 34.83 74.35 63 105-27.63 14.33-63.18 2.4-79.25-23.75C85.67 388.11 91.66 350.16 118 333Z"/><path fill="none" fill-opacity="0" stroke="none" stroke-opacity="0" stroke-width=".3" d="M307 5c52.99 11.36 100.28 35.97 138.25 77.75S506.83 177.59 512 233V0H279c8.82 1.37 19.27 3.13 28 5Z"/><path fill="none" fill-opacity="0" stroke="#81878A" stroke-width=".3" d="M307 507c40.92-7.75 79.09-26.16 112-52-5.12-6.62-23.43-5.04-23.93-17.07-.49-12.03 15.16-15.6 23.93-17.93 3.95-7.8 5.05-24.24 17.03-24.97 11.97-.74 13.8 17.58 18.97 23.97 31.87-40.22 51.99-89.32 57-140v-30c-1.54-2.28-1.72-7.79 0-10v-6c-5.17-55.41-28.78-108.47-66.75-150.25S359.99 16.36 307 5c-54.39 13.71-106.19 42.89-143 89 12.39-7.35 30.26-6.31 40.25 4.75 9.98 11.06 10.88 29.3 1.5 41s-26.67 14.26-39.52 7.02c-12.85-7.24-17.34-23.74-15.23-36.77-44.02 63.2-56.59 147.71-34 222 28.63-20.83 70.73-12.73 89.75 17.25 19.01 29.99 7.74 72.32-24.75 87.75 16.63 16.95 34.25 32.28 55.31 42.7 21.05 10.41 46.48 24.05 69.69 27.3m74-418c19.24 3.28 12.45 36.11-7 31-19.45-5.11-12.46-34.31 7-31M195 209c8.45 3.12 11.81 17.52 8.22 25.22-3.58 7.7-11.41 15.33-21.29 16.71-9.89 1.37-22.64-1.15-30.18-7.68-7.53-6.54-10.23-19.6-4.44-26.94 5.78-7.35 15.74-14.74 24.69-13.31-3.77-3.28-12.13-12.24-4.25-17.25 7.89-5 10.36 2.55 17.33 7.17 6.97 4.62 11.99-3.84 17.62-8.22 5.62-4.39 15.86 7.36 8.99 12.99-6.86 5.64-7.96 10.15-16.69 11.31m143-5c12.39-2.28 27.15 8.22 29.33 20.67 2.18 12.45-9.24 25.08-22.34 26.32-13.1 1.24-27.55.53-34.91-13.07-7.36-13.61 1.19-26.08 14.92-28.92-9.68.88-15.42-1.94-22.25-7.75-6.83-5.81-7.17-15.48 1.28-17.22 8.44-1.75 11.61 13.59 19.97 9.97 8.36-3.62 9.71-13.44 18.69-8.69 8.99 4.74-.54 15.44-4.69 18.69m-69 19c5.79 1.76 7.35 14.03-.08 14.92-7.43.89-18.68.07-25.92.08-7.24.01-6.58-15.19.23-14.77 6.81.42 18.95-2.3 25.77-.23m145 36c34.01 4.11 52.53 46.23 31.75 73.75-20.79 27.51-62.85 24.37-78.67-6.83-15.83-31.19 10.4-71.33 46.92-66.92m-95 152c18.94 4.69 8.1 37.76-10.67 29.67-18.77-8.09-8.27-34.36 10.67-29.67Z"/><path fill="none" fill-opacity="0" stroke="#676F72" stroke-width=".3" d="M381 89c-19.46-3.31-26.45 25.89-7 31 19.45 5.11 26.24-27.72 7-31Z"/><path fill="none" fill-opacity="0" stroke="#323E41" stroke-width=".3" d="M172 203c6.16 5.36 14.8 7.09 23 6 8.73-1.16 9.83-5.67 16.69-11.31 6.87-5.63-3.37-17.38-8.99-12.99-5.63 4.38-10.65 12.84-17.62 8.22-6.97-4.62-9.44-12.17-17.33-7.17-7.88 5.01.48 13.97 4.25 17.25ZM325 209c4.36-.9 9.32-2.12 13-5 4.15-3.25 13.68-13.95 4.69-18.69-8.98-4.75-10.33 5.07-18.69 8.69-8.36 3.62-11.53-11.72-19.97-9.97-8.45 1.74-8.11 11.41-1.28 17.22 6.83 5.81 12.57 8.63 22.25 7.75Z"/><path fill="none" fill-opacity="0" stroke="#FC8D9D" stroke-width=".3" d="M195 209c-8.2 1.09-16.84-.64-23-6-8.95-1.43-18.91 5.96-24.69 13.31-5.79 7.34-3.09 20.4 4.44 26.94 7.54 6.53 20.29 9.05 30.18 7.68 9.88-1.38 17.71-9.01 21.29-16.71 3.59-7.7.23-22.1-8.22-25.22ZM325 209c-13.73 2.84-22.28 15.31-14.92 28.92 7.36 13.6 21.81 14.31 34.91 13.07 13.1-1.24 24.52-13.87 22.34-26.32-2.18-12.45-16.94-22.95-29.33-20.67-3.68 2.88-8.64 4.1-13 5Z"/><path fill="none" fill-opacity="0" stroke="#323E41" stroke-width=".3" d="M269 223c-6.82-2.07-18.96.65-25.77.23-6.81-.42-7.47 14.78-.23 14.77 7.24-.01 18.49.81 25.92-.08 7.43-.89 5.87-13.16.08-14.92Z"/><path fill="none" fill-opacity="0" stroke="#82878A" stroke-opacity=".69" stroke-width=".3" d="M512 249v-10c-1.72 2.21-1.54 7.72 0 10Z"/><path fill="none" fill-opacity="0" stroke="#4C5659" stroke-width=".3" d="M67 241c-18.88-4.68-29.35 21.6-10.67 29.67S86.19 245.75 67 241Z"/><path fill="none" fill-opacity="0" stroke="#676F72" stroke-width=".3" d="M414 259c-36.52-4.41-62.75 35.73-46.92 66.92 15.82 31.2 57.88 34.34 78.67 6.83 20.78-27.52 2.26-69.64-31.75-73.75Z"/><path fill="none" fill-opacity="0" stroke="none" stroke-opacity="0" stroke-width=".3" d="M0 512h233C114.02 503.87 8.12 398.06 0 279v233ZM455 419c7.01 5.31 24.26 5.31 23 18-1.26 12.69-14.69 13.53-24 17-2.77 8.77-5.2 23.4-17 24-11.8.59-14.9-14.49-18-23-32.91 25.84-71.08 44.25-112 52-8.72 1.65-19.11 3.75-28 5h233V279c-5.01 50.68-25.13 99.78-57 140Z"/><path fill="none" fill-opacity="0" stroke="#4C5659" stroke-width=".3" d="M118 333c-26.34 17.16-32.33 55.11-16.25 81.25C117.82 440.4 153.37 452.33 181 438c-28.17-30.65-51.76-65.43-63-105Z"/><path fill="none" fill-opacity="0" stroke="#FECD71" stroke-opacity=".98" stroke-width=".3" d="M419 455c3.1 8.51 6.2 23.59 18 23 11.8-.6 14.23-15.23 17-24 9.31-3.47 22.74-4.31 24-17 1.26-12.69-15.99-12.69-23-18-5.17-6.39-7-24.71-18.97-23.97-11.98.73-13.08 17.17-17.03 24.97-8.77 2.33-24.42 5.9-23.93 17.93.5 12.03 18.81 10.45 23.93 17.07Z"/><path fill="none" fill-opacity="0" stroke="#676F72" stroke-width=".3" d="M319 411c-18.94-4.69-29.44 21.58-10.67 29.67 18.77 8.09 29.61-24.98 10.67-29.67Z"/><path fill="none" fill-opacity="0" stroke="#676E72" stroke-opacity=".71" stroke-width=".3" d="M263 512h9c-1.89-1.72-7.04-1.52-9 0Z"/><path fill="none" fill-opacity="0" stroke="None" d="M0 25c4.95-4.16 10.62-7.14 17-8 .83-6.33 3.89-12.09 8-17H0v25Z"/><path fill="#FFCE71" fill-opacity=".94" stroke="None" d="M0 25v9c4.89 4.28 10.89 6.46 17 8 2.64 7.07 2.46 15.67 12.01 16.99 9.54 1.32 9.04-11.96 13.3-16.68 4.25-4.73 17.13-2.86 16.68-12.32C58.54 20.53 49.38 19.08 42 17c-1.51-6.06-3.77-12.15-8-17h-9c-4.11 4.91-7.17 10.67-8 17-6.38.86-12.05 3.84-17 8Z"/><path fill="none" fill-opacity="0" stroke="None" d="M0 34v199C8.11 113.95 114.02 8.09 233 0H34c4.23 4.85 6.49 10.94 8 17 7.38 2.08 16.54 3.53 16.99 12.99.45 9.46-12.43 7.59-16.68 12.32-4.26 4.72-3.76 18-13.3 16.68C19.46 57.67 19.64 49.07 17 42c-6.11-1.54-12.11-3.72-17-8Z"/><path fill="#666E71" fill-opacity=".99" stroke="None" d="M0 233v46c8.12 119.06 114.02 224.87 233 233h30c1.96-1.52 7.11-1.72 9 0h7c8.89-1.25 19.28-3.35 28-5-23.21-3.25-48.64-16.89-69.69-27.3-21.06-10.42-38.68-25.75-55.31-42.7 32.49-15.43 43.76-57.76 24.75-87.75-19.02-29.98-61.12-38.08-89.75-17.25-22.59-74.29-10.02-158.8 34-222-2.11 13.03 2.38 29.53 15.23 36.77 12.85 7.24 30.14 4.68 39.52-7.02 9.38-11.7 8.48-29.94-1.5-41-9.99-11.06-27.86-12.1-40.25-4.75 36.81-46.11 88.61-75.29 143-89-8.73-1.87-19.18-3.63-28-5h-46C114.02 8.09 8.11 113.95 0 233m67 8c19.19 4.75 8.01 37.74-10.67 29.67S48.12 236.32 67 241m51 92c11.24 39.57 34.83 74.35 63 105-27.63 14.33-63.18 2.4-79.25-23.75C85.67 388.11 91.66 350.16 118 333Z"/><path fill="none" fill-opacity="0" stroke="None" d="M307 5c52.99 11.36 100.28 35.97 138.25 77.75S506.83 177.59 512 233V0H279c8.82 1.37 19.27 3.13 28 5Z"/><path fill="#81878A" stroke="None" d="M307 507c40.92-7.75 79.09-26.16 112-52-5.12-6.62-23.43-5.04-23.93-17.07-.49-12.03 15.16-15.6 23.93-17.93 3.95-7.8 5.05-24.24 17.03-24.97 11.97-.74 13.8 17.58 18.97 23.97 31.87-40.22 51.99-89.32 57-140v-30c-1.54-2.28-1.72-7.79 0-10v-6c-5.17-55.41-28.78-108.47-66.75-150.25S359.99 16.36 307 5c-54.39 13.71-106.19 42.89-143 89 12.39-7.35 30.26-6.31 40.25 4.75 9.98 11.06 10.88 29.3 1.5 41s-26.67 14.26-39.52 7.02c-12.85-7.24-17.34-23.74-15.23-36.77-44.02 63.2-56.59 147.71-34 222 28.63-20.83 70.73-12.73 89.75 17.25 19.01 29.99 7.74 72.32-24.75 87.75 16.63 16.95 34.25 32.28 55.31 42.7 21.05 10.41 46.48 24.05 69.69 27.3m74-418c19.24 3.28 12.45 36.11-7 31-19.45-5.11-12.46-34.31 7-31M195 209c8.45 3.12 11.81 17.52 8.22 25.22-3.58 7.7-11.41 15.33-21.29 16.71-9.89 1.37-22.64-1.15-30.18-7.68-7.53-6.54-10.23-19.6-4.44-26.94 5.78-7.35 15.74-14.74 24.69-13.31-3.77-3.28-12.13-12.24-4.25-17.25 7.89-5 10.36 2.55 17.33 7.17 6.97 4.62 11.99-3.84 17.62-8.22 5.62-4.39 15.86 7.36 8.99 12.99-6.86 5.64-7.96 10.15-16.69 11.31m143-5c12.39-2.28 27.15 8.22 29.33 20.67 2.18 12.45-9.24 25.08-22.34 26.32-13.1 1.24-27.55.53-34.91-13.07-7.36-13.61 1.19-26.08 14.92-28.92-9.68.88-15.42-1.94-22.25-7.75-6.83-5.81-7.17-15.48 1.28-17.22 8.44-1.75 11.61 13.59 19.97 9.97 8.36-3.62 9.71-13.44 18.69-8.69 8.99 4.74-.54 15.44-4.69 18.69m-69 19c5.79 1.76 7.35 14.03-.08 14.92-7.43.89-18.68.07-25.92.08-7.24.01-6.58-15.19.23-14.77 6.81.42 18.95-2.3 25.77-.23m145 36c34.01 4.11 52.53 46.23 31.75 73.75-20.79 27.51-62.85 24.37-78.67-6.83-15.83-31.19 10.4-71.33 46.92-66.92m-95 152c18.94 4.69 8.1 37.76-10.67 29.67-18.77-8.09-8.27-34.36 10.67-29.67Z"/><path fill="#676F72" stroke="None" d="M381 89c-19.46-3.31-26.45 25.89-7 31 19.45 5.11 26.24-27.72 7-31Z"/><path fill="#323E41" stroke="None" d="M172 203c6.16 5.36 14.8 7.09 23 6 8.73-1.16 9.83-5.67 16.69-11.31 6.87-5.63-3.37-17.38-8.99-12.99-5.63 4.38-10.65 12.84-17.62 8.22-6.97-4.62-9.44-12.17-17.33-7.17-7.88 5.01.48 13.97 4.25 17.25ZM325 209c4.36-.9 9.32-2.12 13-5 4.15-3.25 13.68-13.95 4.69-18.69-8.98-4.75-10.33 5.07-18.69 8.69-8.36 3.62-11.53-11.72-19.97-9.97-8.45 1.74-8.11 11.41-1.28 17.22 6.83 5.81 12.57 8.63 22.25 7.75Z"/><path fill="#FC8D9D" stroke="None" d="M195 209c-8.2 1.09-16.84-.64-23-6-8.95-1.43-18.91 5.96-24.69 13.31-5.79 7.34-3.09 20.4 4.44 26.94 7.54 6.53 20.29 9.05 30.18 7.68 9.88-1.38 17.71-9.01 21.29-16.71 3.59-7.7.23-22.1-8.22-25.22ZM325 209c-13.73 2.84-22.28 15.31-14.92 28.92 7.36 13.6 21.81 14.31 34.91 13.07 13.1-1.24 24.52-13.87 22.34-26.32-2.18-12.45-16.94-22.95-29.33-20.67-3.68 2.88-8.64 4.1-13 5Z"/><path fill="#323E41" stroke="None" d="M269 223c-6.82-2.07-18.96.65-25.77.23-6.81-.42-7.47 14.78-.23 14.77 7.24-.01 18.49.81 25.92-.08 7.43-.89 5.87-13.16.08-14.92Z"/><path fill="#82878A" fill-opacity=".69" stroke="None" d="M512 249v-10c-1.72 2.21-1.54 7.72 0 10Z"/><path fill="#4C5659" stroke="None" d="M67 241c-18.88-4.68-29.35 21.6-10.67 29.67S86.19 245.75 67 241Z"/><path fill="#676F72" stroke="None" d="M414 259c-36.52-4.41-62.75 35.73-46.92 66.92 15.82 31.2 57.88 34.34 78.67 6.83 20.78-27.52 2.26-69.64-31.75-73.75Z"/><path fill="none" fill-opacity="0" stroke="None" d="M0 512h233C114.02 503.87 8.12 398.06 0 279v233ZM455 419c7.01 5.31 24.26 5.31 23 18-1.26 12.69-14.69 13.53-24 17-2.77 8.77-5.2 23.4-17 24-11.8.59-14.9-14.49-18-23-32.91 25.84-71.08 44.25-112 52-8.72 1.65-19.11 3.75-28 5h233V279c-5.01 50.68-25.13 99.78-57 140Z"/><path fill="#4C5659" stroke="None" d="M118 333c-26.34 17.16-32.33 55.11-16.25 81.25C117.82 440.4 153.37 452.33 181 438c-28.17-30.65-51.76-65.43-63-105Z"/><path fill="#FECD71" fill-opacity=".98" stroke="None" d="M419 455c3.1 8.51 6.2 23.59 18 23 11.8-.6 14.23-15.23 17-24 9.31-3.47 22.74-4.31 24-17 1.26-12.69-15.99-12.69-23-18-5.17-6.39-7-24.71-18.97-23.97-11.98.73-13.08 17.17-17.03 24.97-8.77 2.33-24.42 5.9-23.93 17.93.5 12.03 18.81 10.45 23.93 17.07Z"/><path fill="#676F72" stroke="None" d="M319 411c-18.94-4.69-29.44 21.58-10.67 29.67 18.77 8.09 29.61-24.98 10.67-29.67Z"/><path fill="#676E72" fill-opacity=".71" stroke="None" d="M263 512h9c-1.89-1.72-7.04-1.52-9 0Z"/></svg>