<svg xmlns="http://www.w3.org/2000/svg" width="512" height="512"><path fill="none" fill-opacity="0" stroke="#000" stroke-opacity=".01" stroke-width=".3" d="M0 245c3.48-13.31 19.36-16.24 24.3-29.7 4.95-13.45 10.12-28.78.39-42.99-9.72-14.22 2.23-27.78 16.99-29.63 14.75-1.85 20.16-17.28 26.64-27.36 6.48-10.08-2.87-36.11 10.76-41.24 13.64-5.13 31.85.39 43.15-8.85 11.3-9.24 20.57-17.19 21.69-30.31 1.12-13.13 17.23-15.37 25-10.79s18.37 7.28 29.83 5.48c11.46-1.81 16.61-4.1 24.55-11.31 7.94-7.21 12.77-18.45 23.78-16.37 11.01 2.09 18.22 13.15 26.67 17.46 8.46 4.32 19.09 7.23 31 5.01 11.92-2.23 13.1-6.83 24.15-10.52 11.05-3.68 20.32 6.01 22.81 15.42 2.49 9.42 9.35 16.32 21.52 24.47 12.17 8.15 31.24.28 45 5 13.75 4.72 5.76 30.66 13.69 40.31 7.94 9.64 14.32 23.98 29.76 24.24 15.44.27 27.1 14.94 18.34 29.7-8.75 14.77-.29 29.74 5.73 42.23 6.03 12.48 25.33 13.87 25.25 28.75-.08 14.88-16.63 21.01-17.98 36.02-1.34 15.01-2.58 28.13 9.23 40.73 11.8 12.61.08 26.51-12.94 31.56-13.03 5.04-18.08 21.18-21.24 32.76-3.16 11.58 10.97 35.53-3.77 42.23-14.73 6.71-26.85 2.93-39.05 14.95-12.2 12.02-14.05 20.23-16.25 37.75-2.2 17.52-25.66 10.76-37 9-11.34-1.76-31.24 6.91-37.25 16.75-6.01 9.84-16.64 30.21-30.43 20.93-13.79-9.28-23.83-15.56-40.32-13.68-16.49 1.88-22.61 10.66-35 19h283V0H0v245Z"/><path fill="none" fill-opacity="0" stroke="#000" stroke-width=".3" d="M0 245v5c5.58 11.45 18.21 17.01 21.92 30.08 3.72 13.06 5.59 29.68-4.17 41.67-9.77 11.98-2.69 27.28 11.94 30.56 14.64 3.27 18.16 15.28 25.23 26.77 7.08 11.48-4.06 32.56 4.83 43.17 8.9 10.6 30.84 2.33 40.48 11.52 9.64 9.19 21.95 14.33 22.55 29.45.59 15.12 13.85 26.23 28.44 18 14.59-8.22 28.53-1.27 41.03 4.53 12.49 5.81 14.96 19.55 25.75 26.25h11c12.39-8.34 18.51-17.12 35-19 16.49-1.88 26.53 4.4 40.32 13.68s24.42-11.09 30.43-20.93c6.01-9.84 25.91-18.51 37.25-16.75 11.34 1.76 34.8 8.52 37-9 2.2-17.52 4.05-25.73 16.25-37.75s24.32-8.24 39.05-14.95c14.74-6.7.61-30.65 3.77-42.23 3.16-11.58 8.21-27.72 21.24-32.76 13.02-5.05 24.74-18.95 12.94-31.56-11.81-12.6-10.57-25.72-9.23-40.73 1.35-15.01 17.9-21.14 17.98-36.02.08-14.88-19.22-16.27-25.25-28.75-6.02-12.49-14.48-27.46-5.73-42.23 8.76-14.76-2.9-29.43-18.34-29.7-15.44-.26-21.82-14.6-29.76-24.24-7.93-9.65.06-35.59-13.69-40.31-13.76-4.72-32.83 3.15-45-5-12.17-8.15-19.03-15.05-21.52-24.47-2.49-9.41-11.76-19.1-22.81-15.42-11.05 3.69-12.23 8.29-24.15 10.52-11.91 2.22-22.54-.69-31-5.01-8.45-4.31-15.66-15.37-26.67-17.46-11.01-2.08-15.84 9.16-23.78 16.37-7.94 7.21-13.09 9.5-24.55 11.31-11.46 1.8-22.06-.9-29.83-5.48s-23.88-2.34-25 10.79c-1.12 13.12-10.39 21.07-21.69 30.31-11.3 9.24-29.51 3.72-43.15 8.85-13.63 5.13-4.28 31.16-10.76 41.24-6.48 10.08-11.89 25.51-26.64 27.36-14.76 1.85-26.71 15.41-16.99 29.63 9.73 14.21 4.56 29.54-.39 42.99C19.36 228.76 3.48 231.69 0 245M290 40c3.32.13 6.68 0 10 0 12.82 0 23.53-5.33 34-12 9.5 32.1 45.23 53.3 78 43-3.85 34.14 23.51 66.27 57 69-2.14 7.18-5.58 13.19-5.99 21.01-.42 7.81-.29 18.65 2.31 25.67 2.61 7.02 4.5 12.9 9.43 18.57 4.94 5.66 6.83 10.28 14.33 13.67 7.5 3.38 8.13 7.47 1.67 12.83-6.45 5.37-6.47 11.14-10.06 17.94-3.59 6.81-3.43 16.49-3.69 24.31-.26 7.82 2.66 15.82 5.31 22.69 2.65 6.88 7.48 11.09 10.69 17.31-7.34 3.81-14.97 6.83-20.75 13.25-5.79 6.41-11 11.64-14.02 19.98-3.02 8.34-7.08 18.9-5.23 28.77 1.85 9.87 6.28 20.81-5.67 20.33-11.95-.48-16.16 4.73-24.58 9.42-8.41 4.7-12.86 8.97-17.67 17.33-4.8 8.37-9.92 12.58-9.41 24.59.51 12.01-9.77 8.77-19.74 6.4-9.97-2.37-20.47 2.36-29 4.86-8.54 2.5-13.59 8.12-20.18 13.82-6.58 5.7-9.94 13.81-13.75 21.25-6.29-3.05-9.85-7.51-16.69-10.3-6.85-2.8-14.34-5.6-22.31-5.7-7.97-.1-17.4.58-24.68 3.32-7.27 2.75-11.5 5.55-18.02 9.98-6.51 4.44-7 10.82-13.05-.55-6.06-11.36-20.21-20.71-31.93-24.07-11.71-3.37-14.84-2.78-25.32-2.68-10.48.1-12.81 3.77-22 6-2.75-33.6-34.86-60.74-69-57 .88-4.26 2.31-8.41 2-13 .11-2.97.11-6.03 0-9-.99-25.86-20.58-48.53-45-56 6.46-9.93 12.08-20.73 12-33 .07-3.32.07-6.68 0-10-.2-9.97-5.19-20.59-9.3-28.7s-18.55-14-10.47-20.07S32.3 231.28 37.3 222.3c5.01-8.97 7.3-21.38 6.7-32.3-.6-10.92-3.78-20.68-9-30 33.84-5.58 56.66-40.87 51-74 33.27 7.65 67.27-17.46 73-50 9.17 4.69 18.22 8.72 29 9 10.78.28 23.71-.68 32.69-6.31 8.99-5.62 14.32-8.08 20.56-17.44 6.25-9.35 12.14 3.7 19.98 8.52C269.07 34.59 279.94 40.6 290 40Z"/><path fill="none" fill-opacity="0" stroke="#FCDE74" stroke-width=".3" d="M39 292c.4 3.28.39 6.78 0 10 .08 12.27-5.54 23.07-12 33 24.42 7.47 44.01 30.14 45 56 .44 3.08.43 5.98 0 9 .31 4.59-1.12 8.74-2 13 34.14-3.74 66.25 23.4 69 57 9.19-2.23 11.52-5.9 22-6 10.48-.1 13.61-.69 25.32 2.68 11.72 3.36 25.87 12.71 31.93 24.07 6.05 11.37 6.54 4.99 13.05.55 6.52-4.43 10.75-7.23 18.02-9.98 7.28-2.74 16.71-3.42 24.68-3.32 7.97.1 15.46 2.9 22.31 5.7 6.84 2.79 10.4 7.25 16.69 10.3 3.81-7.44 7.17-15.55 13.75-21.25 6.59-5.7 11.64-11.32 20.18-13.82 8.53-2.5 19.03-7.23 29-4.86 9.97 2.37 20.25 5.61 19.74-6.4-.51-12.01 4.61-16.22 9.41-24.59 4.81-8.36 9.26-12.63 17.67-17.33 8.42-4.69 12.63-9.9 24.58-9.42 11.95.48 7.52-10.46 5.67-20.33-1.85-9.87 2.21-20.43 5.23-28.77 3.02-8.34 8.23-13.57 14.02-19.98 5.78-6.42 13.41-9.44 20.75-13.25-3.21-6.22-8.04-10.43-10.69-17.31-2.65-6.87-5.57-14.87-5.31-22.69.26-7.82.1-17.5 3.69-24.31 3.59-6.8 3.61-12.57 10.06-17.94 6.46-5.36 5.83-9.45-1.67-12.83-7.5-3.39-9.39-8.01-14.33-13.67-4.93-5.67-6.82-11.55-9.43-18.57-2.6-7.02-2.73-17.86-2.31-25.67.41-7.82 3.85-13.83 5.99-21.01-33.49-2.73-60.85-34.86-57-69-32.77 10.3-68.5-10.9-78-43-10.47 6.67-21.18 12-34 12-3.25.31-6.76.46-10 0-10.06.6-20.93-5.41-28.77-10.23s-13.73-17.87-19.98-8.52c-6.24 9.36-11.57 11.82-20.56 17.44-8.98 5.63-21.91 6.59-32.69 6.31-10.78-.28-19.83-4.31-29-9-5.73 32.54-39.73 57.65-73 50 5.66 33.13-17.16 68.42-51 74 5.22 9.32 8.4 19.08 9 30 .6 10.92-1.69 23.33-6.7 32.3-5 8.98-9.99 14.86-18.07 20.93s6.36 11.96 10.47 20.07 9.1 18.73 9.3 28.7m358 94c-1.93.28-9.76 8.13-10 10 7.47 7.77-8.03 16.67-14.25 21.75-6.22 5.09-17.7 10.78-25.83 15.17-8.13 4.4-19.05 9.54-28.6 12.4-9.55 2.87-23.18 6.79-33.32 7.68-10.14.89-10.23 2.34-19 2-8.77-.34-11.9.04-20 0s-10.92-.78-19.02-1.98c-8.1-1.19-7.5-.2-17-3-9.51-2.79-21.81-5.91-31-9.99-9.2-4.09-18.27-9.26-26.73-14.28-8.45-5.02-4.53-3.27-12.5-8.5s-15.33-11.7-22.5-18.5c-7.18-6.79-13.06-14.28-19.02-21.98-5.96-7.7-11.65-16.2-16.15-24.85-4.51-8.64-9.89-19.13-12.86-28.14-2.96-9.01-3.11-8.16-4.55-15.45-1.43-7.29-3.79-9.77-4.45-16.55C59.56 285 58.64 280.57 58 274c-.63-6.57.41-14.44 0-21-.41-6.56.07-12.93.99-19.01.92-6.08 1.41-12.22 2.99-18.01 1.57-5.79 2.3-9.92-.9-15.06-3.21-5.13-2.75-12.06-.75-17.59 2-5.54 3.55-7.36 8.9-11.1 5.35-3.74 8.22-1.06 12.02-8.98 3.81-7.91 10.69-17.95 16-25 5.31-7.05 4.73-5.68 8.67-11.33 3.94-5.66 6.68-5.28 10.33-10.67 3.65-5.4 6.85-3.49 10.5-9.5 3.65-6.01 9.44-2.52 14.25-2.75 4.11-.2 6.75-7.07 11-7-6.05-10.2 13.09-16.21 21.07-19.93 7.99-3.71 21.55-9.79 32-12 10.45-2.2 24.9-5.84 36.94-6.06 12.04-.22 30.85-.42 42.66 1.32 11.81 1.74 23.62 4.97 34.4 8.6 10.78 3.62 21.4 7.67 31.01 12.99 9.6 5.33 17.37 10.92 26 17 8.64 6.08 15.48 13.69 23.17 20.83 7.69 7.15 13.02 15.85 19.5 23.5 6.49 7.64 9.72 21.8 18.26 25.74 8.53 3.94 21.57 15.55 15.99 27.01s-2.77 21.64-.07 34.07 1.01 29.5 1.07 41.93c.06 12.43-4.12 26.24-6.78 37.22s-7.06 22.62-11.19 31.81c-4.14 9.18-11.52 20.78-16.28 27.72-4.77 6.93-14.34 24.95-22.75 17.25Z"/><path fill="none" fill-opacity="0" stroke="#716334" stroke-width=".3" d="M300 40c-3.32 0-6.68.13-10 0 3.24.46 6.75.31 10 0Z"/><path fill="none" fill-opacity="0" stroke="#000" stroke-width=".3" d="M152 97c5.2 8.76 18.1-2.58 25.23-5.77 7.12-3.19 19-7.59 27.79-10.21 8.8-2.61 22.1-5.24 31.98-6.02 71.43-5.67 143.11 26.34 178 91-49.65-10.01-94.05 3.83-142 11s-94.23-19.4-143-14c-2.42.23-5.91 1-9 1-8.32 0-15.84 1.44-24 2 4.93-11.89 15.35-20.94 22.75-31.25 7.4-10.31 24.44-16.95 21.25-30.75-4.81.23-10.6-3.26-14.25 2.75-3.65 6.01-6.85 4.1-10.5 9.5-3.65 5.39-6.39 5.01-10.33 10.67-3.94 5.65-3.36 4.28-8.67 11.33-5.31 7.05-12.19 17.09-16 25-3.8 7.92-6.67 5.24-12.02 8.98s-6.9 5.56-8.9 11.1c-2 5.53-2.46 12.46.75 17.59 3.2 5.14 2.47 9.27.9 15.06-1.58 5.79-2.07 11.93-2.99 18.01-.92 6.08-1.4 12.45-.99 19.01.41 6.56-.63 14.43 0 21 .64 6.57 1.56 11 2.22 17.78.66 6.78 3.02 9.26 4.45 16.55 1.44 7.29 1.59 6.44 4.55 15.45 2.97 9.01 8.35 19.5 12.86 28.14 4.5 8.65 10.19 17.15 16.15 24.85 5.96 7.7 11.84 15.19 19.02 21.98 7.17 6.8 14.53 13.27 22.5 18.5 7.97 5.23 4.05 3.48 12.5 8.5 8.46 5.02 17.53 10.19 26.73 14.28 9.19 4.08 21.49 7.2 31 9.99 9.5 2.8 8.9 1.81 17 3 8.1 1.2 10.92 1.94 19.02 1.98 8.1.04 11.23-.34 20 0s8.86-1.11 19-2c10.14-.89 23.77-4.81 33.32-7.68 9.55-2.86 20.47-8 28.6-12.4 8.13-4.39 19.61-10.08 25.83-15.17 6.22-5.08 21.72-13.98 14.25-21.75-7.67-7.98-17.49 6.11-24.7 10.3-7.21 4.2-16.1 11.23-24.99 15.01-8.9 3.77-18.39 8.43-28.53 11.47-10.15 3.03-22.46 4.99-33.78 6.22-11.32 1.23-26.42 1.54-38 0-48.54-6.47-90.81-26.45-122.92-66.08C81.97 333.29 65.6 278.14 75 226c5.66 24.68 8.77 54.47 34 69 12.58 7.47 26.54 10.03 41 12 14.46 1.97 34.3 1.02 47.08-4.92 12.77-5.95 22.68-9.34 31.17-21.83 8.48-12.49 12.07-23.28 14.73-39.27 2.65-16 20.36-20.29 24.79-3.75s6.19 26.8 14 40 16.33 17.8 29.25 23.75c12.93 5.94 32.37 7.88 46.98 7.02 14.61-.86 28.75-5.21 41.23-11.77 12.48-6.57 19.94-15.07 26.69-27.31 6.75-12.24 5.44-30.4 11.08-42.92 3.96 19.7 1.81 45.22-.78 64.22s-10.83 34.77-17.52 51.48c-6.7 16.7-24.91 27.01-21.7 44.3 8.41 7.7 17.98-10.32 22.75-17.25 4.76-6.94 12.14-18.54 16.28-27.72 4.13-9.19 8.53-20.83 11.19-31.81s6.84-24.79 6.78-37.22c-.06-12.43 1.63-29.5-1.07-41.93s-5.51-22.61.07-34.07-7.46-23.07-15.99-27.01c-8.54-3.94-11.77-18.1-18.26-25.74-6.48-7.65-11.81-16.35-19.5-23.5-7.69-7.14-14.53-14.75-23.17-20.83-8.63-6.08-16.4-11.67-26-17-9.61-5.32-20.23-9.37-31.01-12.99-10.78-3.63-22.59-6.86-34.4-8.6-11.81-1.74-30.62-1.54-42.66-1.32-12.04.22-26.49 3.86-36.94 6.06-10.45 2.21-24.01 8.29-32 12C165.09 80.79 145.95 86.8 152 97m6 81c11.71 1.13 23.62 4.31 35.67 6.33 12.05 2.02 23.9 5.09 36.33 6.67 12.43 1.57 27.97 3.17 41 2 13.03-1.17 23.59-4.42 36.22-6.78 12.64-2.35 22.95-5.16 36-7 13.05-1.83 27.81-1.35 41.78-1.22 13.97.13 24.1 4.23 39 4 14.9-.23 16.19 12.87 6.7 21.7-9.49 8.82-8.75 20.03-12.03 30.97-3.27 10.95-1.96 23.36-8.98 33.02-7.01 9.67-13.69 13.94-24.37 18.63-10.67 4.7-24.09 6.63-36.32 6.68-12.23.05-25.36-2.05-35.69-7.31-10.34-5.25-16.63-11.23-21.61-21.39-4.99-10.15-5.77-22.65-10.02-32.98-4.25-10.33-10.63-18.68-21.69-21.31-11.05-2.63-20.86 5.03-26.29 14.69-5.43 9.65-7.5 22.04-10.63 32.37-3.12 10.34-8.16 18.27-17.32 24.68-9.16 6.42-20.41 9.77-31.77 11.23-11.37 1.45-27.17.08-38-2.96-10.84-3.04-19.47-7.89-27.73-15.27C99.98 267.37 96.11 254.98 95 245c-1.1-9.98-5.18-26.25-8.92-34.08-3.74-7.83-19.85-21.42-8-26.84 11.85-5.41 25.37-2.83 37.93-5.07 12.55-2.25 28.99-2.27 41.99-1.01Z"/><path fill="none" fill-opacity="0" stroke="#FEC160" stroke-width=".3" d="M237 75c-5.46 1.59-11.5 4.8-17.08 6.92-5.57 2.13-10.86 5.05-16 8-5.15 2.95-10.77 6.12-15.67 9.33-4.89 3.21-8.73 7.24-13.5 10.5-4.76 3.26-8.08 7.68-12.5 11.5-4.42 3.81-8.09 9.12-12.02 12.98-3.93 3.86-6.94 10.03-10.53 13.47-3.59 3.43-5.82 13.38-9.7 15.3 48.77-5.4 95.05 21.17 143 14 47.95-7.17 92.35-21.01 142-11-34.89-64.66-106.57-96.67-178-91Z"/><path fill="none" fill-opacity="0" stroke="#FAA555" stroke-width=".3" d="M152 97c-4.25-.07-6.89 6.8-11 7 3.19 13.8-13.85 20.44-21.25 30.75-7.4 10.31-17.82 19.36-22.75 31.25 8.16-.56 15.68-2 24-2 1.22-.12 7.64-.33 9-1 3.88-1.92 6.11-11.87 9.7-15.3 3.59-3.44 6.6-9.61 10.53-13.47 3.93-3.86 7.6-9.17 12.02-12.98 4.42-3.82 7.74-8.24 12.5-11.5 4.77-3.26 8.61-7.29 13.5-10.5 4.9-3.21 10.52-6.38 15.67-9.33 5.14-2.95 10.43-5.87 16-8C225.5 79.8 231.54 76.59 237 75c-9.88.78-23.18 3.41-31.98 6.02-8.79 2.62-20.67 7.02-27.79 10.21C170.1 94.42 157.2 105.76 152 97Z"/><path fill="none" fill-opacity="0" stroke="#734C27" stroke-width=".3" d="M121 164c3.09 0 6.58-.77 9-1-1.36.67-7.78.88-9 1Z"/><path fill="none" fill-opacity="0" stroke="#F15B65" stroke-width=".3" d="M158 178c-13-1.26-29.44-1.24-41.99 1.01-12.56 2.24-26.08-.34-37.93 5.07-11.85 5.42 4.26 19.01 8 26.84 3.74 7.83 7.82 24.1 8.92 34.08 1.11 9.98 4.98 22.37 13.25 29.75 8.26 7.38 16.89 12.23 27.73 15.27 10.83 3.04 26.63 4.41 38 2.96 11.36-1.46 22.61-4.81 31.77-11.23 9.16-6.41 14.2-14.34 17.32-24.68 3.13-10.33 5.2-22.72 10.63-32.37 5.43-9.66 15.24-17.32 26.29-14.69 11.06 2.63 17.44 10.98 21.69 21.31 4.25 10.33 5.03 22.83 10.02 32.98 4.98 10.16 11.27 16.14 21.61 21.39 10.33 5.26 23.46 7.36 35.69 7.31 12.23-.05 25.65-1.98 36.32-6.68 10.68-4.69 17.36-8.96 24.37-18.63 7.02-9.66 5.71-22.07 8.98-33.02 3.28-10.94 2.54-22.15 12.03-30.97 9.49-8.83 8.2-21.93-6.7-21.7-14.9.23-25.03-3.87-39-4-13.97-.13-28.73-.61-41.78 1.22-13.05 1.84-23.36 4.65-36 7-12.63 2.36-23.19 5.61-36.22 6.78-13.03 1.17-28.57-.43-41-2-12.43-1.58-24.28-4.65-36.33-6.67-12.05-2.02-23.96-5.2-35.67-6.33m-5 15c17.5 0 29.84 3.49 46.22 7.78 16.38 4.28 18.09 22.43 13.79 36.23-4.3 13.79-9.23 24.47-21.26 32.74-12.02 8.28-29.98 11.64-44.42 8.92-14.44-2.71-24.39-8.11-32.25-21.75-7.85-13.65-9.46-26.03-10.08-43.92-.62-17.89 20.42-20 35-20 4.09-.4 8.98-.39 13 0m225 0c15.75 0 31.1 6.84 29 24-2.1 17.16-2.55 28.7-11.25 41.75-8.71 13.04-18.22 17.93-32.77 20.23-14.56 2.29-31.38-1.51-43.23-9.73-11.84-8.23-16.53-18.86-20.68-32.32-4.14-13.47-2.98-31.59 12.96-35.91 15.93-4.31 28-8.02 44.97-8.02 6.61-.64 14.46-.63 21 0Z"/><path fill="none" fill-opacity="0" stroke="#612429" stroke-width=".3" d="M140 193h13c-4.02-.39-8.91-.4-13 0Z"/><path fill="none" fill-opacity="0" stroke="#732B30" stroke-width=".3" d="M357 193h21c-6.54-.63-14.39-.64-21 0Z"/><path fill="none" fill-opacity="0" stroke="#000" stroke-width=".3" d="M153 193h-13c-14.58 0-35.62 2.11-35 20 .62 17.89 2.23 30.27 10.08 43.92 7.86 13.64 17.81 19.04 32.25 21.75 14.44 2.72 32.4-.64 44.42-8.92 12.03-8.27 16.96-18.95 21.26-32.74 4.3-13.8 2.59-31.95-13.79-36.23C182.84 196.49 170.5 193 153 193m-1 15c14.49 0 28.12 1.76 41.22 6.78 13.11 5.02 4.48 22.76-1.14 33.3C186.46 258.62 171.68 264 160 264c-11.22 0-24.01-1.3-30.75-12.25-6.75-10.95-7.57-20.27-9.18-33.82-1.6-13.55 22.86-10.81 31.93-9.93ZM378 193h-21c-16.97 0-29.04 3.71-44.97 8.02-15.94 4.32-17.1 22.44-12.96 35.91 4.15 13.46 8.84 24.09 20.68 32.32 11.85 8.22 28.67 12.02 43.23 9.73 14.55-2.3 24.06-7.19 32.77-20.23 8.7-13.05 9.15-24.59 11.25-41.75 2.1-17.16-13.25-24-29-24m-21 71c-11.54.23-22.21-.47-31.23-8.77-9.02-8.3-9.72-14.72-13.55-27.45-3.83-12.74 12.73-15.33 22.78-17.78 14.89-3.63 32.15-2.7 48-2 15.85.7 6.96 24.19 3.68 35.68-3.29 11.49-17.46 20.08-29.68 20.32Z"/><path fill="none" fill-opacity="0" stroke="#4A3E4D" stroke-width=".3" d="M160 264c-5.37-1.98-6.56-9.56-9.92-14.08-3.37-4.51-4.35-11.84-6.01-17.99-1.65-6.15-.94-17.05-1.07-23.93h9c-9.07-.88-33.53-3.62-31.93 9.93 1.61 13.55 2.43 22.87 9.18 33.82C135.99 262.7 148.78 264 160 264Z"/><path fill="none" fill-opacity="0" stroke="#5C525F" stroke-width=".3" d="M160 264c11.68 0 26.46-5.38 32.08-15.92 5.62-10.54 14.25-28.28 1.14-33.3-13.1-5.02-26.73-6.78-41.22-6.78h-9c.13 6.88-.58 17.78 1.07 23.93 1.66 6.15 2.64 13.48 6.01 17.99 3.36 4.52 4.55 12.1 9.92 14.08ZM335 210c.11 8.98 1.47 24.89 5.93 32.07 4.45 7.19 7.58 19.51 16.07 21.93 12.22-.24 26.39-8.83 29.68-20.32 3.28-11.49 12.17-34.98-3.68-35.68-15.85-.7-33.11-1.63-48 2Z"/><path fill="none" fill-opacity="0" stroke="#4A3E4D" stroke-width=".3" d="M357 264c-8.49-2.42-11.62-14.74-16.07-21.93-4.46-7.18-5.82-23.09-5.93-32.07-10.05 2.45-26.61 5.04-22.78 17.78 3.83 12.73 4.53 19.15 13.55 27.45s19.69 9 31.23 8.77Z"/><path fill="none" fill-opacity="0" stroke="#FEC160" stroke-width=".3" d="M109 295c5.88 11.76 6.03 29.26 13.31 40.7 7.27 11.43 10.97 24.19 19.61 34.38 8.64 10.19 16.22 19.85 26.33 28.67s19.42 16.53 31 23c11.57 6.48 25.32 13.48 37.75 17.25 11.58 1.54 26.68 1.23 38 0s23.63-3.19 33.78-6.22c10.14-3.04 19.63-7.7 28.53-11.47 8.89-3.78 17.78-10.81 24.99-15.01 7.21-4.19 17.03-18.28 24.7-10.3.24-1.87 8.07-9.72 10-10-3.21-17.29 15-27.6 21.7-44.3 6.69-16.71 14.93-32.48 17.52-51.48s4.74-44.52.78-64.22c-5.64 12.52-4.33 30.68-11.08 42.92-6.75 12.24-14.21 20.74-26.69 27.31-12.48 6.56-26.62 10.91-41.23 11.77-14.61.86-34.05-1.08-46.98-7.02-12.92-5.95-21.44-10.55-29.25-23.75-7.81-13.2-9.57-23.46-14-40s-22.14-12.25-24.79 3.75c-2.66 15.99-6.25 26.78-14.73 39.27-8.49 12.49-18.4 15.88-31.17 21.83-12.78 5.94-32.62 6.89-47.08 4.92-14.46-1.97-28.42-4.53-41-12m132-8c5.41 1.61 7.63 8.96 15.02 7.98 7.4-.98 9.74-4.4 16.06-7.9 6.33-3.5 13.07 7.64 8.15 12.15-4.93 4.5-8.21 6.73-14.25 8.75-6.05 2.01-14.16 2.92-20.05.09-5.89-2.82-10.49-3.49-14.68-9.32-4.2-5.83 2.58-13.89 9.75-11.75Z"/><path fill="none" fill-opacity="0" stroke="#FAA555" stroke-width=".3" d="M237 439c-12.43-3.77-26.18-10.77-37.75-17.25-11.58-6.47-20.89-14.18-31-23s-17.69-18.48-26.33-28.67c-8.64-10.19-12.34-22.95-19.61-34.38-7.28-11.44-7.43-28.94-13.31-40.7-25.23-14.53-28.34-44.32-34-69-9.4 52.14 6.97 107.29 39.08 146.92C146.19 412.55 188.46 432.53 237 439Z"/><path fill="none" fill-opacity="0" stroke="#000" stroke-opacity=".01" stroke-width=".3" d="M0 512h218c-10.79-6.7-13.26-20.44-25.75-26.25-12.5-5.8-26.44-12.75-41.03-4.53-14.59 8.23-27.85-2.88-28.44-18-.6-15.12-12.91-20.26-22.55-29.45-9.64-9.19-31.58-.92-40.48-11.52-8.89-10.61 2.25-31.69-4.83-43.17-7.07-11.49-10.59-23.5-25.23-26.77-14.63-3.28-21.71-18.58-11.94-30.56 9.76-11.99 7.89-28.61 4.17-41.67C18.21 267.01 5.58 261.45 0 250v262Z"/><path fill="none" fill-opacity="0" stroke="#000" stroke-width=".3" d="M241 287c-7.17-2.14-13.95 5.92-9.75 11.75 4.19 5.83 8.79 6.5 14.68 9.32 5.89 2.83 14 1.92 20.05-.09 6.04-2.02 9.32-4.25 14.25-8.75 4.92-4.51-1.82-15.65-8.15-12.15-6.32 3.5-8.66 6.92-16.06 7.9-7.39.98-9.61-6.37-15.02-7.98Z"/><path fill="none" fill-opacity="0" stroke="#6D6032" stroke-width=".3" d="M39 302c.39-3.22.4-6.72 0-10 .07 3.32.07 6.68 0 10Z"/><path fill="none" fill-opacity="0" stroke="#82733C" stroke-width=".3" d="M72 400c.43-3.02.44-5.92 0-9 .11 2.97.11 6.03 0 9Z"/><path fill-opacity=".01" stroke="None" d="M0 245c3.48-13.31 19.36-16.24 24.3-29.7 4.95-13.45 10.12-28.78.39-42.99-9.72-14.22 2.23-27.78 16.99-29.63 14.75-1.85 20.16-17.28 26.64-27.36 6.48-10.08-2.87-36.11 10.76-41.24 13.64-5.13 31.85.39 43.15-8.85 11.3-9.24 20.57-17.19 21.69-30.31 1.12-13.13 17.23-15.37 25-10.79s18.37 7.28 29.83 5.48c11.46-1.81 16.61-4.1 24.55-11.31 7.94-7.21 12.77-18.45 23.78-16.37 11.01 2.09 18.22 13.15 26.67 17.46 8.46 4.32 19.09 7.23 31 5.01 11.92-2.23 13.1-6.83 24.15-10.52 11.05-3.68 20.32 6.01 22.81 15.42 2.49 9.42 9.35 16.32 21.52 24.47 12.17 8.15 31.24.28 45 5 13.75 4.72 5.76 30.66 13.69 40.31 7.94 9.64 14.32 23.98 29.76 24.24 15.44.27 27.1 14.94 18.34 29.7-8.75 14.77-.29 29.74 5.73 42.23 6.03 12.48 25.33 13.87 25.25 28.75-.08 14.88-16.63 21.01-17.98 36.02-1.34 15.01-2.58 28.13 9.23 40.73 11.8 12.61.08 26.51-12.94 31.56-13.03 5.04-18.08 21.18-21.24 32.76-3.16 11.58 10.97 35.53-3.77 42.23-14.73 6.71-26.85 2.93-39.05 14.95-12.2 12.02-14.05 20.23-16.25 37.75-2.2 17.52-25.66 10.76-37 9-11.34-1.76-31.24 6.91-37.25 16.75-6.01 9.84-16.64 30.21-30.43 20.93-13.79-9.28-23.83-15.56-40.32-13.68-16.49 1.88-22.61 10.66-35 19h283V0H0v245Z"/><path stroke="None" d="M0 245v5c5.58 11.45 18.21 17.01 21.92 30.08 3.72 13.06 5.59 29.68-4.17 41.67-9.77 11.98-2.69 27.28 11.94 30.56 14.64 3.27 18.16 15.28 25.23 26.77 7.08 11.48-4.06 32.56 4.83 43.17 8.9 10.6 30.84 2.33 40.48 11.52 9.64 9.19 21.95 14.33 22.55 29.45.59 15.12 13.85 26.23 28.44 18 14.59-8.22 28.53-1.27 41.03 4.53 12.49 5.81 14.96 19.55 25.75 26.25h11c12.39-8.34 18.51-17.12 35-19 16.49-1.88 26.53 4.4 40.32 13.68s24.42-11.09 30.43-20.93c6.01-9.84 25.91-18.51 37.25-16.75 11.34 1.76 34.8 8.52 37-9 2.2-17.52 4.05-25.73 16.25-37.75s24.32-8.24 39.05-14.95c14.74-6.7.61-30.65 3.77-42.23 3.16-11.58 8.21-27.72 21.24-32.76 13.02-5.05 24.74-18.95 12.94-31.56-11.81-12.6-10.57-25.72-9.23-40.73 1.35-15.01 17.9-21.14 17.98-36.02.08-14.88-19.22-16.27-25.25-28.75-6.02-12.49-14.48-27.46-5.73-42.23 8.76-14.76-2.9-29.43-18.34-29.7-15.44-.26-21.82-14.6-29.76-24.24-7.93-9.65.06-35.59-13.69-40.31-13.76-4.72-32.83 3.15-45-5-12.17-8.15-19.03-15.05-21.52-24.47-2.49-9.41-11.76-19.1-22.81-15.42-11.05 3.69-12.23 8.29-24.15 10.52-11.91 2.22-22.54-.69-31-5.01-8.45-4.31-15.66-15.37-26.67-17.46-11.01-2.08-15.84 9.16-23.78 16.37-7.94 7.21-13.09 9.5-24.55 11.31-11.46 1.8-22.06-.9-29.83-5.48s-23.88-2.34-25 10.79c-1.12 13.12-10.39 21.07-21.69 30.31-11.3 9.24-29.51 3.72-43.15 8.85-13.63 5.13-4.28 31.16-10.76 41.24-6.48 10.08-11.89 25.51-26.64 27.36-14.76 1.85-26.71 15.41-16.99 29.63 9.73 14.21 4.56 29.54-.39 42.99C19.36 228.76 3.48 231.69 0 245M290 40c3.32.13 6.68 0 10 0 12.82 0 23.53-5.33 34-12 9.5 32.1 45.23 53.3 78 43-3.85 34.14 23.51 66.27 57 69-2.14 7.18-5.58 13.19-5.99 21.01-.42 7.81-.29 18.65 2.31 25.67 2.61 7.02 4.5 12.9 9.43 18.57 4.94 5.66 6.83 10.28 14.33 13.67 7.5 3.38 8.13 7.47 1.67 12.83-6.45 5.37-6.47 11.14-10.06 17.94-3.59 6.81-3.43 16.49-3.69 24.31-.26 7.82 2.66 15.82 5.31 22.69 2.65 6.88 7.48 11.09 10.69 17.31-7.34 3.81-14.97 6.83-20.75 13.25-5.79 6.41-11 11.64-14.02 19.98-3.02 8.34-7.08 18.9-5.23 28.77 1.85 9.87 6.28 20.81-5.67 20.33-11.95-.48-16.16 4.73-24.58 9.42-8.41 4.7-12.86 8.97-17.67 17.33-4.8 8.37-9.92 12.58-9.41 24.59.51 12.01-9.77 8.77-19.74 6.4-9.97-2.37-20.47 2.36-29 4.86-8.54 2.5-13.59 8.12-20.18 13.82-6.58 5.7-9.94 13.81-13.75 21.25-6.29-3.05-9.85-7.51-16.69-10.3-6.85-2.8-14.34-5.6-22.31-5.7-7.97-.1-17.4.58-24.68 3.32-7.27 2.75-11.5 5.55-18.02 9.98-6.51 4.44-7 10.82-13.05-.55-6.06-11.36-20.21-20.71-31.93-24.07-11.71-3.37-14.84-2.78-25.32-2.68-10.48.1-12.81 3.77-22 6-2.75-33.6-34.86-60.74-69-57 .88-4.26 2.31-8.41 2-13 .11-2.97.11-6.03 0-9-.99-25.86-20.58-48.53-45-56 6.46-9.93 12.08-20.73 12-33 .07-3.32.07-6.68 0-10-.2-9.97-5.19-20.59-9.3-28.7s-18.55-14-10.47-20.07S32.3 231.28 37.3 222.3c5.01-8.97 7.3-21.38 6.7-32.3-.6-10.92-3.78-20.68-9-30 33.84-5.58 56.66-40.87 51-74 33.27 7.65 67.27-17.46 73-50 9.17 4.69 18.22 8.72 29 9 10.78.28 23.71-.68 32.69-6.31 8.99-5.62 14.32-8.08 20.56-17.44 6.25-9.35 12.14 3.7 19.98 8.52C269.07 34.59 279.94 40.6 290 40Z"/><path fill="#FCDE74" stroke="None" d="M39 292c.4 3.28.39 6.78 0 10 .08 12.27-5.54 23.07-12 33 24.42 7.47 44.01 30.14 45 56 .44 3.08.43 5.98 0 9 .31 4.59-1.12 8.74-2 13 34.14-3.74 66.25 23.4 69 57 9.19-2.23 11.52-5.9 22-6 10.48-.1 13.61-.69 25.32 2.68 11.72 3.36 25.87 12.71 31.93 24.07 6.05 11.37 6.54 4.99 13.05.55 6.52-4.43 10.75-7.23 18.02-9.98 7.28-2.74 16.71-3.42 24.68-3.32 7.97.1 15.46 2.9 22.31 5.7 6.84 2.79 10.4 7.25 16.69 10.3 3.81-7.44 7.17-15.55 13.75-21.25 6.59-5.7 11.64-11.32 20.18-13.82 8.53-2.5 19.03-7.23 29-4.86 9.97 2.37 20.25 5.61 19.74-6.4-.51-12.01 4.61-16.22 9.41-24.59 4.81-8.36 9.26-12.63 17.67-17.33 8.42-4.69 12.63-9.9 24.58-9.42 11.95.48 7.52-10.46 5.67-20.33-1.85-9.87 2.21-20.43 5.23-28.77 3.02-8.34 8.23-13.57 14.02-19.98 5.78-6.42 13.41-9.44 20.75-13.25-3.21-6.22-8.04-10.43-10.69-17.31-2.65-6.87-5.57-14.87-5.31-22.69.26-7.82.1-17.5 3.69-24.31 3.59-6.8 3.61-12.57 10.06-17.94 6.46-5.36 5.83-9.45-1.67-12.83-7.5-3.39-9.39-8.01-14.33-13.67-4.93-5.67-6.82-11.55-9.43-18.57-2.6-7.02-2.73-17.86-2.31-25.67.41-7.82 3.85-13.83 5.99-21.01-33.49-2.73-60.85-34.86-57-69-32.77 10.3-68.5-10.9-78-43-10.47 6.67-21.18 12-34 12-3.25.31-6.76.46-10 0-10.06.6-20.93-5.41-28.77-10.23s-13.73-17.87-19.98-8.52c-6.24 9.36-11.57 11.82-20.56 17.44-8.98 5.63-21.91 6.59-32.69 6.31-10.78-.28-19.83-4.31-29-9-5.73 32.54-39.73 57.65-73 50 5.66 33.13-17.16 68.42-51 74 5.22 9.32 8.4 19.08 9 30 .6 10.92-1.69 23.33-6.7 32.3-5 8.98-9.99 14.86-18.07 20.93s6.36 11.96 10.47 20.07 9.1 18.73 9.3 28.7m358 94c-1.93.28-9.76 8.13-10 10 7.47 7.77-8.03 16.67-14.25 21.75-6.22 5.09-17.7 10.78-25.83 15.17-8.13 4.4-19.05 9.54-28.6 12.4-9.55 2.87-23.18 6.79-33.32 7.68-10.14.89-10.23 2.34-19 2-8.77-.34-11.9.04-20 0s-10.92-.78-19.02-1.98c-8.1-1.19-7.5-.2-17-3-9.51-2.79-21.81-5.91-31-9.99-9.2-4.09-18.27-9.26-26.73-14.28-8.45-5.02-4.53-3.27-12.5-8.5s-15.33-11.7-22.5-18.5c-7.18-6.79-13.06-14.28-19.02-21.98-5.96-7.7-11.65-16.2-16.15-24.85-4.51-8.64-9.89-19.13-12.86-28.14-2.96-9.01-3.11-8.16-4.55-15.45-1.43-7.29-3.79-9.77-4.45-16.55C59.56 285 58.64 280.57 58 274c-.63-6.57.41-14.44 0-21-.41-6.56.07-12.93.99-19.01.92-6.08 1.41-12.22 2.99-18.01 1.57-5.79 2.3-9.92-.9-15.06-3.21-5.13-2.75-12.06-.75-17.59 2-5.54 3.55-7.36 8.9-11.1 5.35-3.74 8.22-1.06 12.02-8.98 3.81-7.91 10.69-17.95 16-25 5.31-7.05 4.73-5.68 8.67-11.33 3.94-5.66 6.68-5.28 10.33-10.67 3.65-5.4 6.85-3.49 10.5-9.5 3.65-6.01 9.44-2.52 14.25-2.75 4.11-.2 6.75-7.07 11-7-6.05-10.2 13.09-16.21 21.07-19.93 7.99-3.71 21.55-9.79 32-12 10.45-2.2 24.9-5.84 36.94-6.06 12.04-.22 30.85-.42 42.66 1.32 11.81 1.74 23.62 4.97 34.4 8.6 10.78 3.62 21.4 7.67 31.01 12.99 9.6 5.33 17.37 10.92 26 17 8.64 6.08 15.48 13.69 23.17 20.83 7.69 7.15 13.02 15.85 19.5 23.5 6.49 7.64 9.72 21.8 18.26 25.74 8.53 3.94 21.57 15.55 15.99 27.01s-2.77 21.64-.07 34.07 1.01 29.5 1.07 41.93c.06 12.43-4.12 26.24-6.78 37.22s-7.06 22.62-11.19 31.81c-4.14 9.18-11.52 20.78-16.28 27.72-4.77 6.93-14.34 24.95-22.75 17.25Z"/><path fill="#716334" stroke="None" d="M300 40c-3.32 0-6.68.13-10 0 3.24.46 6.75.31 10 0Z"/><path stroke="None" d="M152 97c5.2 8.76 18.1-2.58 25.23-5.77 7.12-3.19 19-7.59 27.79-10.21 8.8-2.61 22.1-5.24 31.98-6.02 71.43-5.67 143.11 26.34 178 91-49.65-10.01-94.05 3.83-142 11s-94.23-19.4-143-14c-2.42.23-5.91 1-9 1-8.32 0-15.84 1.44-24 2 4.93-11.89 15.35-20.94 22.75-31.25 7.4-10.31 24.44-16.95 21.25-30.75-4.81.23-10.6-3.26-14.25 2.75-3.65 6.01-6.85 4.1-10.5 9.5-3.65 5.39-6.39 5.01-10.33 10.67-3.94 5.65-3.36 4.28-8.67 11.33-5.31 7.05-12.19 17.09-16 25-3.8 7.92-6.67 5.24-12.02 8.98s-6.9 5.56-8.9 11.1c-2 5.53-2.46 12.46.75 17.59 3.2 5.14 2.47 9.27.9 15.06-1.58 5.79-2.07 11.93-2.99 18.01-.92 6.08-1.4 12.45-.99 19.01.41 6.56-.63 14.43 0 21 .64 6.57 1.56 11 2.22 17.78.66 6.78 3.02 9.26 4.45 16.55 1.44 7.29 1.59 6.44 4.55 15.45 2.97 9.01 8.35 19.5 12.86 28.14 4.5 8.65 10.19 17.15 16.15 24.85 5.96 7.7 11.84 15.19 19.02 21.98 7.17 6.8 14.53 13.27 22.5 18.5 7.97 5.23 4.05 3.48 12.5 8.5 8.46 5.02 17.53 10.19 26.73 14.28 9.19 4.08 21.49 7.2 31 9.99 9.5 2.8 8.9 1.81 17 3 8.1 1.2 10.92 1.94 19.02 1.98 8.1.04 11.23-.34 20 0s8.86-1.11 19-2c10.14-.89 23.77-4.81 33.32-7.68 9.55-2.86 20.47-8 28.6-12.4 8.13-4.39 19.61-10.08 25.83-15.17 6.22-5.08 21.72-13.98 14.25-21.75-7.67-7.98-17.49 6.11-24.7 10.3-7.21 4.2-16.1 11.23-24.99 15.01-8.9 3.77-18.39 8.43-28.53 11.47-10.15 3.03-22.46 4.99-33.78 6.22-11.32 1.23-26.42 1.54-38 0-48.54-6.47-90.81-26.45-122.92-66.08C81.97 333.29 65.6 278.14 75 226c5.66 24.68 8.77 54.47 34 69 12.58 7.47 26.54 10.03 41 12 14.46 1.97 34.3 1.02 47.08-4.92 12.77-5.95 22.68-9.34 31.17-21.83 8.48-12.49 12.07-23.28 14.73-39.27 2.65-16 20.36-20.29 24.79-3.75s6.19 26.8 14 40 16.33 17.8 29.25 23.75c12.93 5.94 32.37 7.88 46.98 7.02 14.61-.86 28.75-5.21 41.23-11.77 12.48-6.57 19.94-15.07 26.69-27.31 6.75-12.24 5.44-30.4 11.08-42.92 3.96 19.7 1.81 45.22-.78 64.22s-10.83 34.77-17.52 51.48c-6.7 16.7-24.91 27.01-21.7 44.3 8.41 7.7 17.98-10.32 22.75-17.25 4.76-6.94 12.14-18.54 16.28-27.72 4.13-9.19 8.53-20.83 11.19-31.81s6.84-24.79 6.78-37.22c-.06-12.43 1.63-29.5-1.07-41.93s-5.51-22.61.07-34.07-7.46-23.07-15.99-27.01c-8.54-3.94-11.77-18.1-18.26-25.74-6.48-7.65-11.81-16.35-19.5-23.5-7.69-7.14-14.53-14.75-23.17-20.83-8.63-6.08-16.4-11.67-26-17-9.61-5.32-20.23-9.37-31.01-12.99-10.78-3.63-22.59-6.86-34.4-8.6-11.81-1.74-30.62-1.54-42.66-1.32-12.04.22-26.49 3.86-36.94 6.06-10.45 2.21-24.01 8.29-32 12C165.09 80.79 145.95 86.8 152 97m6 81c11.71 1.13 23.62 4.31 35.67 6.33 12.05 2.02 23.9 5.09 36.33 6.67 12.43 1.57 27.97 3.17 41 2 13.03-1.17 23.59-4.42 36.22-6.78 12.64-2.35 22.95-5.16 36-7 13.05-1.83 27.81-1.35 41.78-1.22 13.97.13 24.1 4.23 39 4 14.9-.23 16.19 12.87 6.7 21.7-9.49 8.82-8.75 20.03-12.03 30.97-3.27 10.95-1.96 23.36-8.98 33.02-7.01 9.67-13.69 13.94-24.37 18.63-10.67 4.7-24.09 6.63-36.32 6.68-12.23.05-25.36-2.05-35.69-7.31-10.34-5.25-16.63-11.23-21.61-21.39-4.99-10.15-5.77-22.65-10.02-32.98-4.25-10.33-10.63-18.68-21.69-21.31-11.05-2.63-20.86 5.03-26.29 14.69-5.43 9.65-7.5 22.04-10.63 32.37-3.12 10.34-8.16 18.27-17.32 24.68-9.16 6.42-20.41 9.77-31.77 11.23-11.37 1.45-27.17.08-38-2.96-10.84-3.04-19.47-7.89-27.73-15.27C99.98 267.37 96.11 254.98 95 245c-1.1-9.98-5.18-26.25-8.92-34.08-3.74-7.83-19.85-21.42-8-26.84 11.85-5.41 25.37-2.83 37.93-5.07 12.55-2.25 28.99-2.27 41.99-1.01Z"/><path fill="#FEC160" stroke="None" d="M237 75c-5.46 1.59-11.5 4.8-17.08 6.92-5.57 2.13-10.86 5.05-16 8-5.15 2.95-10.77 6.12-15.67 9.33-4.89 3.21-8.73 7.24-13.5 10.5-4.76 3.26-8.08 7.68-12.5 11.5-4.42 3.81-8.09 9.12-12.02 12.98-3.93 3.86-6.94 10.03-10.53 13.47-3.59 3.43-5.82 13.38-9.7 15.3 48.77-5.4 95.05 21.17 143 14 47.95-7.17 92.35-21.01 142-11-34.89-64.66-106.57-96.67-178-91Z"/><path fill="#FAA555" stroke="None" d="M152 97c-4.25-.07-6.89 6.8-11 7 3.19 13.8-13.85 20.44-21.25 30.75-7.4 10.31-17.82 19.36-22.75 31.25 8.16-.56 15.68-2 24-2 1.22-.12 7.64-.33 9-1 3.88-1.92 6.11-11.87 9.7-15.3 3.59-3.44 6.6-9.61 10.53-13.47 3.93-3.86 7.6-9.17 12.02-12.98 4.42-3.82 7.74-8.24 12.5-11.5 4.77-3.26 8.61-7.29 13.5-10.5 4.9-3.21 10.52-6.38 15.67-9.33 5.14-2.95 10.43-5.87 16-8C225.5 79.8 231.54 76.59 237 75c-9.88.78-23.18 3.41-31.98 6.02-8.79 2.62-20.67 7.02-27.79 10.21C170.1 94.42 157.2 105.76 152 97Z"/><path fill="#734C27" stroke="None" d="M121 164c3.09 0 6.58-.77 9-1-1.36.67-7.78.88-9 1Z"/><path fill="#F15B65" stroke="None" d="M158 178c-13-1.26-29.44-1.24-41.99 1.01-12.56 2.24-26.08-.34-37.93 5.07-11.85 5.42 4.26 19.01 8 26.84 3.74 7.83 7.82 24.1 8.92 34.08 1.11 9.98 4.98 22.37 13.25 29.75 8.26 7.38 16.89 12.23 27.73 15.27 10.83 3.04 26.63 4.41 38 2.96 11.36-1.46 22.61-4.81 31.77-11.23 9.16-6.41 14.2-14.34 17.32-24.68 3.13-10.33 5.2-22.72 10.63-32.37 5.43-9.66 15.24-17.32 26.29-14.69 11.06 2.63 17.44 10.98 21.69 21.31 4.25 10.33 5.03 22.83 10.02 32.98 4.98 10.16 11.27 16.14 21.61 21.39 10.33 5.26 23.46 7.36 35.69 7.31 12.23-.05 25.65-1.98 36.32-6.68 10.68-4.69 17.36-8.96 24.37-18.63 7.02-9.66 5.71-22.07 8.98-33.02 3.28-10.94 2.54-22.15 12.03-30.97 9.49-8.83 8.2-21.93-6.7-21.7-14.9.23-25.03-3.87-39-4-13.97-.13-28.73-.61-41.78 1.22-13.05 1.84-23.36 4.65-36 7-12.63 2.36-23.19 5.61-36.22 6.78-13.03 1.17-28.57-.43-41-2-12.43-1.58-24.28-4.65-36.33-6.67-12.05-2.02-23.96-5.2-35.67-6.33m-5 15c17.5 0 29.84 3.49 46.22 7.78 16.38 4.28 18.09 22.43 13.79 36.23-4.3 13.79-9.23 24.47-21.26 32.74-12.02 8.28-29.98 11.64-44.42 8.92-14.44-2.71-24.39-8.11-32.25-21.75-7.85-13.65-9.46-26.03-10.08-43.92-.62-17.89 20.42-20 35-20 4.09-.4 8.98-.39 13 0m225 0c15.75 0 31.1 6.84 29 24-2.1 17.16-2.55 28.7-11.25 41.75-8.71 13.04-18.22 17.93-32.77 20.23-14.56 2.29-31.38-1.51-43.23-9.73-11.84-8.23-16.53-18.86-20.68-32.32-4.14-13.47-2.98-31.59 12.96-35.91 15.93-4.31 28-8.02 44.97-8.02 6.61-.64 14.46-.63 21 0Z"/><path fill="#612429" stroke="None" d="M140 193h13c-4.02-.39-8.91-.4-13 0Z"/><path fill="#732B30" stroke="None" d="M357 193h21c-6.54-.63-14.39-.64-21 0Z"/><path stroke="None" d="M153 193h-13c-14.58 0-35.62 2.11-35 20 .62 17.89 2.23 30.27 10.08 43.92 7.86 13.64 17.81 19.04 32.25 21.75 14.44 2.72 32.4-.64 44.42-8.92 12.03-8.27 16.96-18.95 21.26-32.74 4.3-13.8 2.59-31.95-13.79-36.23C182.84 196.49 170.5 193 153 193m-1 15c14.49 0 28.12 1.76 41.22 6.78 13.11 5.02 4.48 22.76-1.14 33.3C186.46 258.62 171.68 264 160 264c-11.22 0-24.01-1.3-30.75-12.25-6.75-10.95-7.57-20.27-9.18-33.82-1.6-13.55 22.86-10.81 31.93-9.93ZM378 193h-21c-16.97 0-29.04 3.71-44.97 8.02-15.94 4.32-17.1 22.44-12.96 35.91 4.15 13.46 8.84 24.09 20.68 32.32 11.85 8.22 28.67 12.02 43.23 9.73 14.55-2.3 24.06-7.19 32.77-20.23 8.7-13.05 9.15-24.59 11.25-41.75 2.1-17.16-13.25-24-29-24m-21 71c-11.54.23-22.21-.47-31.23-8.77-9.02-8.3-9.72-14.72-13.55-27.45-3.83-12.74 12.73-15.33 22.78-17.78 14.89-3.63 32.15-2.7 48-2 15.85.7 6.96 24.19 3.68 35.68-3.29 11.49-17.46 20.08-29.68 20.32Z"/><path fill="#4A3E4D" stroke="None" d="M160 264c-5.37-1.98-6.56-9.56-9.92-14.08-3.37-4.51-4.35-11.84-6.01-17.99-1.65-6.15-.94-17.05-1.07-23.93h9c-9.07-.88-33.53-3.62-31.93 9.93 1.61 13.55 2.43 22.87 9.18 33.82C135.99 262.7 148.78 264 160 264Z"/><path fill="#5C525F" stroke="None" d="M160 264c11.68 0 26.46-5.38 32.08-15.92 5.62-10.54 14.25-28.28 1.14-33.3-13.1-5.02-26.73-6.78-41.22-6.78h-9c.13 6.88-.58 17.78 1.07 23.93 1.66 6.15 2.64 13.48 6.01 17.99 3.36 4.52 4.55 12.1 9.92 14.08ZM335 210c.11 8.98 1.47 24.89 5.93 32.07 4.45 7.19 7.58 19.51 16.07 21.93 12.22-.24 26.39-8.83 29.68-20.32 3.28-11.49 12.17-34.98-3.68-35.68-15.85-.7-33.11-1.63-48 2Z"/><path fill="#4A3E4D" stroke="None" d="M357 264c-8.49-2.42-11.62-14.74-16.07-21.93-4.46-7.18-5.82-23.09-5.93-32.07-10.05 2.45-26.61 5.04-22.78 17.78 3.83 12.73 4.53 19.15 13.55 27.45s19.69 9 31.23 8.77Z"/><path fill="#FEC160" stroke="None" d="M109 295c5.88 11.76 6.03 29.26 13.31 40.7 7.27 11.43 10.97 24.19 19.61 34.38 8.64 10.19 16.22 19.85 26.33 28.67s19.42 16.53 31 23c11.57 6.48 25.32 13.48 37.75 17.25 11.58 1.54 26.68 1.23 38 0s23.63-3.19 33.78-6.22c10.14-3.04 19.63-7.7 28.53-11.47 8.89-3.78 17.78-10.81 24.99-15.01 7.21-4.19 17.03-18.28 24.7-10.3.24-1.87 8.07-9.72 10-10-3.21-17.29 15-27.6 21.7-44.3 6.69-16.71 14.93-32.48 17.52-51.48s4.74-44.52.78-64.22c-5.64 12.52-4.33 30.68-11.08 42.92-6.75 12.24-14.21 20.74-26.69 27.31-12.48 6.56-26.62 10.91-41.23 11.77-14.61.86-34.05-1.08-46.98-7.02-12.92-5.95-21.44-10.55-29.25-23.75-7.81-13.2-9.57-23.46-14-40s-22.14-12.25-24.79 3.75c-2.66 15.99-6.25 26.78-14.73 39.27-8.49 12.49-18.4 15.88-31.17 21.83-12.78 5.94-32.62 6.89-47.08 4.92-14.46-1.97-28.42-4.53-41-12m132-8c5.41 1.61 7.63 8.96 15.02 7.98 7.4-.98 9.74-4.4 16.06-7.9 6.33-3.5 13.07 7.64 8.15 12.15-4.93 4.5-8.21 6.73-14.25 8.75-6.05 2.01-14.16 2.92-20.05.09-5.89-2.82-10.49-3.49-14.68-9.32-4.2-5.83 2.58-13.89 9.75-11.75Z"/><path fill="#FAA555" stroke="None" d="M237 439c-12.43-3.77-26.18-10.77-37.75-17.25-11.58-6.47-20.89-14.18-31-23s-17.69-18.48-26.33-28.67c-8.64-10.19-12.34-22.95-19.61-34.38-7.28-11.44-7.43-28.94-13.31-40.7-25.23-14.53-28.34-44.32-34-69-9.4 52.14 6.97 107.29 39.08 146.92C146.19 412.55 188.46 432.53 237 439Z"/><path fill-opacity=".01" stroke="None" d="M0 512h218c-10.79-6.7-13.26-20.44-25.75-26.25-12.5-5.8-26.44-12.75-41.03-4.53-14.59 8.23-27.85-2.88-28.44-18-.6-15.12-12.91-20.26-22.55-29.45-9.64-9.19-31.58-.92-40.48-11.52-8.89-10.61 2.25-31.69-4.83-43.17-7.07-11.49-10.59-23.5-25.23-26.77-14.63-3.28-21.71-18.58-11.94-30.56 9.76-11.99 7.89-28.61 4.17-41.67C18.21 267.01 5.58 261.45 0 250v262Z"/><path stroke="None" d="M241 287c-7.17-2.14-13.95 5.92-9.75 11.75 4.19 5.83 8.79 6.5 14.68 9.32 5.89 2.83 14 1.92 20.05-.09 6.04-2.02 9.32-4.25 14.25-8.75 4.92-4.51-1.82-15.65-8.15-12.15-6.32 3.5-8.66 6.92-16.06 7.9-7.39.98-9.61-6.37-15.02-7.98Z"/><path fill="#6D6032" stroke="None" d="M39 302c.39-3.22.4-6.72 0-10 .07 3.32.07 6.68 0 10Z"/><path fill="#82733C" stroke="None" d="M72 400c.43-3.02.44-5.92 0-9 .11 2.97.11 6.03 0 9Z"/></svg>